<svg xmlns="http://www.w3.org/2000/svg" width="860" height="140" viewBox="0 0 860 140" font-family="SFMono-Regular, Consolas, Menlo, monospace">
<defs><pattern id="checker" width="8" height="8" patternUnits="userSpaceOnUse"><rect width="8" height="8" fill="#e6edf3"/><rect width="4" height="4" fill="#111"/><rect x="4" y="4" width="4" height="4" fill="#111"/></pattern></defs>
<rect width="860" height="140" fill="#0d1117"/>
<line x1="0" y1="40" x2="836" y2="40" stroke="#30363d" stroke-width="2" stroke-dasharray="8 6"/>
<line x1="0" y1="72" x2="836" y2="72" stroke="#30363d" stroke-width="2" stroke-dasharray="8 6"/>
<rect x="838" y="8" width="18" height="96" fill="url(#checker)" stroke="#e6edf3" stroke-width="1"/>
<g transform="translate(-72,14.0)"><animateTransform attributeName="transform" type="translate" from="-72,14.0" to="870,14.0" dur="4.2s" begin="0.0s" repeatCount="indefinite"/><rect x="0" y="1" width="5" height="2" fill="#e6edf3"/><rect x="0" y="11" width="5" height="2" fill="#e6edf3"/><rect x="0" y="2" width="3" height="10" fill="#111"/><path d="M5,11 L9,11 L14,6 L30,4 L39,5 L46,8 L55,9 L58,10 L58,12 L51,13 L44,13 L39,14 L18,14 L11,13 L5,13 Z" fill="#DC0000"/><path d="M25,6 Q30,-1 35,6" fill="none" stroke="#c9d1d9" stroke-width="1.3"/><rect x="58" y="8" width="3" height="7" fill="#111"/><rect x="56" y="7" width="5" height="2" fill="#e6edf3"/><rect x="56" y="14" width="5" height="2" fill="#e6edf3"/><g><animateTransform attributeName="transform" type="rotate" from="0 14 15" to="360 14 15" dur="0.3s" repeatCount="indefinite"/><circle cx="14" cy="15" r="4.5" fill="#111"/><circle cx="14" cy="15" r="1.6" fill="#666"/><line x1="14" y1="15" x2="14" y2="11" stroke="#888" stroke-width="1"/></g><g><animateTransform attributeName="transform" type="rotate" from="0 46 15" to="360 46 15" dur="0.3s" repeatCount="indefinite"/><circle cx="46" cy="15" r="4.5" fill="#111"/><circle cx="46" cy="15" r="1.6" fill="#666"/><line x1="46" y1="15" x2="46" y2="11" stroke="#888" stroke-width="1"/></g></g>
<g transform="translate(-72,46.0)"><animateTransform attributeName="transform" type="translate" from="-72,46.0" to="870,46.0" dur="3.6s" begin="0.6s" repeatCount="indefinite"/><rect x="0" y="1" width="5" height="2" fill="#e6edf3"/><rect x="0" y="11" width="5" height="2" fill="#e6edf3"/><rect x="0" y="2" width="3" height="10" fill="#111"/><path d="M5,11 L9,11 L14,6 L30,4 L39,5 L46,8 L55,9 L58,10 L58,12 L51,13 L44,13 L39,14 L18,14 L11,13 L5,13 Z" fill="#6AD3FF"/><path d="M25,6 Q30,-1 35,6" fill="none" stroke="#c9d1d9" stroke-width="1.3"/><rect x="58" y="8" width="3" height="7" fill="#111"/><rect x="56" y="7" width="5" height="2" fill="#e6edf3"/><rect x="56" y="14" width="5" height="2" fill="#e6edf3"/><g><animateTransform attributeName="transform" type="rotate" from="0 14 15" to="360 14 15" dur="0.3s" repeatCount="indefinite"/><circle cx="14" cy="15" r="4.5" fill="#111"/><circle cx="14" cy="15" r="1.6" fill="#666"/><line x1="14" y1="15" x2="14" y2="11" stroke="#888" stroke-width="1"/></g><g><animateTransform attributeName="transform" type="rotate" from="0 46 15" to="360 46 15" dur="0.3s" repeatCount="indefinite"/><circle cx="46" cy="15" r="4.5" fill="#111"/><circle cx="46" cy="15" r="1.6" fill="#666"/><line x1="46" y1="15" x2="46" y2="11" stroke="#888" stroke-width="1"/></g></g>
<g transform="translate(-72,78.0)"><animateTransform attributeName="transform" type="translate" from="-72,78.0" to="870,78.0" dur="5.0s" begin="1.2s" repeatCount="indefinite"/><rect x="0" y="1" width="5" height="2" fill="#e6edf3"/><rect x="0" y="11" width="5" height="2" fill="#e6edf3"/><rect x="0" y="2" width="3" height="10" fill="#111"/><path d="M5,11 L9,11 L14,6 L30,4 L39,5 L46,8 L55,9 L58,10 L58,12 L51,13 L44,13 L39,14 L18,14 L11,13 L5,13 Z" fill="#39d353"/><path d="M25,6 Q30,-1 35,6" fill="none" stroke="#c9d1d9" stroke-width="1.3"/><rect x="58" y="8" width="3" height="7" fill="#111"/><rect x="56" y="7" width="5" height="2" fill="#e6edf3"/><rect x="56" y="14" width="5" height="2" fill="#e6edf3"/><g><animateTransform attributeName="transform" type="rotate" from="0 14 15" to="360 14 15" dur="0.3s" repeatCount="indefinite"/><circle cx="14" cy="15" r="4.5" fill="#111"/><circle cx="14" cy="15" r="1.6" fill="#666"/><line x1="14" y1="15" x2="14" y2="11" stroke="#888" stroke-width="1"/></g><g><animateTransform attributeName="transform" type="rotate" from="0 46 15" to="360 46 15" dur="0.3s" repeatCount="indefinite"/><circle cx="46" cy="15" r="4.5" fill="#111"/><circle cx="46" cy="15" r="1.6" fill="#666"/><line x1="46" y1="15" x2="46" y2="11" stroke="#888" stroke-width="1"/></g></g>
<text x="430.0" y="128" font-size="12" fill="#6AD3FF" text-anchor="middle">mantej@github ~ $ ./race.sh  &#8212;  always building, always racing &#127954;</text>
</svg>