<svg xmlns="http://www.w3.org/2000/svg" width="860" height="200" viewBox="0 0 860 200" font-family="SFMono-Regular, Consolas, Menlo, monospace">
<defs><linearGradient id="trackGrad" x1="0" y1="0" x2="0" y2="1"><stop offset="0%" stop-color="#262c36"/><stop offset="100%" stop-color="#1a1f27"/></linearGradient><pattern id="checker" width="10" height="10" patternUnits="userSpaceOnUse"><rect width="10" height="10" fill="#e6edf3"/><rect width="5" height="5" fill="#111"/><rect x="5" y="5" width="5" height="5" fill="#111"/></pattern><pattern id="barrier" width="10" height="10" patternTransform="rotate(45)" patternUnits="userSpaceOnUse"><rect width="10" height="10" fill="#e6edf3"/><rect width="5" height="10" fill="#DC0000"/></pattern><filter id="carBlur" x="-60%" y="-60%" width="220%" height="220%"><feGaussianBlur stdDeviation="1.6"/></filter></defs>
<rect width="860" height="200" fill="#0d1117"/>
<polygon points="360.0,24 500.0,24 840.0,176.0 20.0,176.0" fill="url(#trackGrad)"/><polygon points="360.0,24 355.1,24 -12.8,176.0 20.0,176.0" fill="url(#barrier)"/><polygon points="500.0,24 504.9,24 872.8,176.0 840.0,176.0" fill="url(#barrier)"/><polygon points="360.0,24 500.0,24 523.8,34.6 336.2,34.6" fill="url(#checker)"/><line x1="398.7" y1="34.6" x2="350.0" y2="100.0" stroke="#e6edf3" stroke-opacity="0.55" stroke-width="1" stroke-dasharray="6 6"><animate attributeName="stroke-dashoffset" values="0;-40" dur="0.7s" repeatCount="indefinite"/></line><line x1="350.0" y1="100.0" x2="293.3" y2="176.0" stroke="#e6edf3" stroke-opacity="0.55" stroke-width="2.5" stroke-dasharray="10 8"><animate attributeName="stroke-dashoffset" values="0;-40" dur="0.7s" repeatCount="indefinite"/></line><line x1="461.3" y1="34.6" x2="510.0" y2="100.0" stroke="#e6edf3" stroke-opacity="0.55" stroke-width="1" stroke-dasharray="6 6"><animate attributeName="stroke-dashoffset" values="0;-40" dur="0.7s" repeatCount="indefinite"/></line><line x1="510.0" y1="100.0" x2="566.7" y2="176.0" stroke="#e6edf3" stroke-opacity="0.55" stroke-width="2.5" stroke-dasharray="10 8"><animate attributeName="stroke-dashoffset" values="0;-40" dur="0.7s" repeatCount="indefinite"/></line>
<g opacity="0"><animate attributeName="opacity" values="0.000;0.617;1.000;1.000;1.000;1.000;1.000;1.000;1.000;1.000;1.000;1.000;1.000;1.000;1.000;1.000;1.000;1.000;1.000;1.000;1.000;1.000;1.000;1.000;1.000;1.000;0.617;0.000" keyTimes="0.0000;0.0370;0.0741;0.1111;0.1481;0.1852;0.2222;0.2593;0.2963;0.3333;0.3704;0.4074;0.4444;0.4815;0.5185;0.5556;0.5926;0.6296;0.6667;0.7037;0.7407;0.7778;0.8148;0.8519;0.8889;0.9259;0.9630;1.0000" dur="4.6s" begin="0.0s" repeatCount="indefinite"/><animateTransform attributeName="transform" type="translate" values="204.5,176.0;234.8,170.4;255.0,164.7;260.6,159.1;253.2,153.5;238.9,147.9;226.2,142.2;222.3,136.6;230.6,131.0;249.7,125.3;274.1,119.7;297.0,114.1;312.4,108.4;317.8,102.8;315.1,97.0;308.7,91.0;304.1,84.9;305.5,78.9;314.5,72.9;329.4,66.8;346.7,60.8;362.1,54.8;372.2,49.6;377.2,44.5;378.5,39.4;378.6,34.2;380.2,29.1;384.8,24.0" keyTimes="0.0000;0.0370;0.0741;0.1111;0.1481;0.1852;0.2222;0.2593;0.2963;0.3333;0.3704;0.4074;0.4444;0.4815;0.5185;0.5556;0.5926;0.6296;0.6667;0.7037;0.7407;0.7778;0.8148;0.8519;0.8889;0.9259;0.9630;1.0000" dur="4.6s" begin="0.0s" repeatCount="indefinite"/><g><animateTransform attributeName="transform" type="scale" values="1.050;1.027;1.003;0.980;0.957;0.933;0.910;0.887;0.863;0.840;0.817;0.793;0.770;0.747;0.723;0.698;0.673;0.647;0.623;0.598;0.573;0.548;0.526;0.505;0.484;0.462;0.441;0.420" keyTimes="0.0000;0.0370;0.0741;0.1111;0.1481;0.1852;0.2222;0.2593;0.2963;0.3333;0.3704;0.4074;0.4444;0.4815;0.5185;0.5556;0.5926;0.6296;0.6667;0.7037;0.7407;0.7778;0.8148;0.8519;0.8889;0.9259;0.9630;1.0000" dur="4.6s" begin="0.0s" repeatCount="indefinite"/><ellipse cx="2" cy="6" rx="13" ry="5" fill="#000000" opacity="0.4" filter="url(#carBlur)"/><ellipse cx="0" cy="24" rx="6" ry="11" fill="#DC0000" opacity="0.16" filter="url(#carBlur)"/><g><animateTransform attributeName="transform" type="rotate" from="0 -9 -11" to="360 -9 -11" dur="0.22s" repeatCount="indefinite"/><ellipse cx="-9" cy="-11" rx="3.2" ry="2.4" fill="#111"/><circle cx="-9" cy="-11" r="1.1" fill="#666"/><line x1="-9" y1="-11" x2="-9" y2="-13" stroke="#999" stroke-width="0.8"/></g><g><animateTransform attributeName="transform" type="rotate" from="0 9 -11" to="360 9 -11" dur="0.22s" repeatCount="indefinite"/><ellipse cx="9" cy="-11" rx="3.2" ry="2.4" fill="#111"/><circle cx="9" cy="-11" r="1.1" fill="#666"/><line x1="9" y1="-11" x2="9" y2="-13" stroke="#999" stroke-width="0.8"/></g><g><animateTransform attributeName="transform" type="rotate" from="0 -9 11" to="360 -9 11" dur="0.22s" repeatCount="indefinite"/><ellipse cx="-9" cy="11" rx="3.2" ry="2.4" fill="#111"/><circle cx="-9" cy="11" r="1.1" fill="#666"/><line x1="-9" y1="11" x2="-9" y2="9" stroke="#999" stroke-width="0.8"/></g><g><animateTransform attributeName="transform" type="rotate" from="0 9 11" to="360 9 11" dur="0.22s" repeatCount="indefinite"/><ellipse cx="9" cy="11" rx="3.2" ry="2.4" fill="#111"/><circle cx="9" cy="11" r="1.1" fill="#666"/><line x1="9" y1="11" x2="9" y2="9" stroke="#999" stroke-width="0.8"/></g><rect x="-10" y="17" width="20" height="4" fill="#111"/><rect x="-11" y="13" width="2" height="8" fill="#ff5c5c"/><rect x="9" y="13" width="2" height="8" fill="#ff5c5c"/><polygon points="0,-23 7,-14 9,0 8,14 0,20 -8,14 -9,0 -7,-14" fill="#DC0000"/><polygon points="0,-19 4,-11 5,0 4,10 0,16 -4,10 -5,0 -4,-11" fill="#ff5c5c"/><ellipse cx="0" cy="-3" rx="5" ry="7" fill="none" stroke="#c9d1d9" stroke-width="1.2"/><ellipse cx="0" cy="-3" rx="3" ry="4" fill="#111"/><rect x="-9" y="-24" width="18" height="3" fill="#111"/></g></g>
<g opacity="0"><animate attributeName="opacity" values="0.000;0.617;1.000;1.000;1.000;1.000;1.000;1.000;1.000;1.000;1.000;1.000;1.000;1.000;1.000;1.000;1.000;1.000;1.000;1.000;1.000;1.000;1.000;1.000;1.000;1.000;0.617;0.000" keyTimes="0.0000;0.0370;0.0741;0.1111;0.1481;0.1852;0.2222;0.2593;0.2963;0.3333;0.3704;0.4074;0.4444;0.4815;0.5185;0.5556;0.5926;0.6296;0.6667;0.7037;0.7407;0.7778;0.8148;0.8519;0.8889;0.9259;0.9630;1.0000" dur="4.1s" begin="0.5s" repeatCount="indefinite"/><animateTransform attributeName="transform" type="translate" values="461.1,176.0;465.3,169.2;454.0,162.5;433.2,155.7;412.6,149.0;401.0,143.8;402.7,138.8;416.1,133.7;434.6,128.6;449.8,123.6;455.3,118.5;449.5,113.4;435.7,108.4;420.8,101.3;411.7,93.9;411.6,86.4;419.3,79.0;430.3,71.6;439.3,64.1;442.7,57.0;440.7,52.9;434.4,48.8;427.1,44.6;422.1,40.5;421.2,36.4;424.2,32.3;429.1,28.1;433.3,24.0" keyTimes="0.0000;0.0370;0.0741;0.1111;0.1481;0.1852;0.2222;0.2593;0.2963;0.3333;0.3704;0.4074;0.4444;0.4815;0.5185;0.5556;0.5926;0.6296;0.6667;0.7037;0.7407;0.7778;0.8148;0.8519;0.8889;0.9259;0.9630;1.0000" dur="4.1s" begin="0.5s" repeatCount="indefinite"/><g><animateTransform attributeName="transform" type="scale" values="1.050;1.022;0.994;0.966;0.938;0.917;0.896;0.875;0.854;0.833;0.812;0.791;0.770;0.740;0.710;0.679;0.648;0.617;0.586;0.557;0.540;0.523;0.506;0.488;0.471;0.454;0.437;0.420" keyTimes="0.0000;0.0370;0.0741;0.1111;0.1481;0.1852;0.2222;0.2593;0.2963;0.3333;0.3704;0.4074;0.4444;0.4815;0.5185;0.5556;0.5926;0.6296;0.6667;0.7037;0.7407;0.7778;0.8148;0.8519;0.8889;0.9259;0.9630;1.0000" dur="4.1s" begin="0.5s" repeatCount="indefinite"/><ellipse cx="2" cy="6" rx="13" ry="5" fill="#000000" opacity="0.4" filter="url(#carBlur)"/><ellipse cx="0" cy="24" rx="6" ry="11" fill="#6AD3FF" opacity="0.16" filter="url(#carBlur)"/><g><animateTransform attributeName="transform" type="rotate" from="0 -9 -11" to="360 -9 -11" dur="0.22s" repeatCount="indefinite"/><ellipse cx="-9" cy="-11" rx="3.2" ry="2.4" fill="#111"/><circle cx="-9" cy="-11" r="1.1" fill="#666"/><line x1="-9" y1="-11" x2="-9" y2="-13" stroke="#999" stroke-width="0.8"/></g><g><animateTransform attributeName="transform" type="rotate" from="0 9 -11" to="360 9 -11" dur="0.22s" repeatCount="indefinite"/><ellipse cx="9" cy="-11" rx="3.2" ry="2.4" fill="#111"/><circle cx="9" cy="-11" r="1.1" fill="#666"/><line x1="9" y1="-11" x2="9" y2="-13" stroke="#999" stroke-width="0.8"/></g><g><animateTransform attributeName="transform" type="rotate" from="0 -9 11" to="360 -9 11" dur="0.22s" repeatCount="indefinite"/><ellipse cx="-9" cy="11" rx="3.2" ry="2.4" fill="#111"/><circle cx="-9" cy="11" r="1.1" fill="#666"/><line x1="-9" y1="11" x2="-9" y2="9" stroke="#999" stroke-width="0.8"/></g><g><animateTransform attributeName="transform" type="rotate" from="0 9 11" to="360 9 11" dur="0.22s" repeatCount="indefinite"/><ellipse cx="9" cy="11" rx="3.2" ry="2.4" fill="#111"/><circle cx="9" cy="11" r="1.1" fill="#666"/><line x1="9" y1="11" x2="9" y2="9" stroke="#999" stroke-width="0.8"/></g><rect x="-10" y="17" width="20" height="4" fill="#111"/><rect x="-11" y="13" width="2" height="8" fill="#bdeeff"/><rect x="9" y="13" width="2" height="8" fill="#bdeeff"/><polygon points="0,-23 7,-14 9,0 8,14 0,20 -8,14 -9,0 -7,-14" fill="#6AD3FF"/><polygon points="0,-19 4,-11 5,0 4,10 0,16 -4,10 -5,0 -4,-11" fill="#bdeeff"/><ellipse cx="0" cy="-3" rx="5" ry="7" fill="none" stroke="#c9d1d9" stroke-width="1.2"/><ellipse cx="0" cy="-3" rx="3" ry="4" fill="#111"/><rect x="-9" y="-24" width="18" height="3" fill="#111"/></g></g>
<g opacity="0"><animate attributeName="opacity" values="0.000;0.617;1.000;1.000;1.000;1.000;1.000;1.000;1.000;1.000;1.000;1.000;1.000;1.000;1.000;1.000;1.000;1.000;1.000;1.000;1.000;1.000;1.000;1.000;1.000;1.000;0.617;0.000" keyTimes="0.0000;0.0370;0.0741;0.1111;0.1481;0.1852;0.2222;0.2593;0.2963;0.3333;0.3704;0.4074;0.4444;0.4815;0.5185;0.5556;0.5926;0.6296;0.6667;0.7037;0.7407;0.7778;0.8148;0.8519;0.8889;0.9259;0.9630;1.0000" dur="5.0s" begin="1.0s" repeatCount="indefinite"/><animateTransform attributeName="transform" type="translate" values="696.5,176.0;671.8,170.4;640.7,164.7;611.5,159.1;591.1,153.5;583.4,147.9;587.7,142.2;599.6,136.6;612.4,131.0;622.2,127.0;622.7,123.3;612.7,119.5;594.4,115.8;572.7,112.0;553.4,108.3;541.0,104.5;537.6,100.8;539.3,94.2;543.9,87.0;547.2,79.8;545.6,72.6;537.3,65.4;523.3,58.2;506.4,51.0;490.2,44.3;476.9,37.5;467.6,30.8;461.5,24.0" keyTimes="0.0000;0.0370;0.0741;0.1111;0.1481;0.1852;0.2222;0.2593;0.2963;0.3333;0.3704;0.4074;0.4444;0.4815;0.5185;0.5556;0.5926;0.6296;0.6667;0.7037;0.7407;0.7778;0.8148;0.8519;0.8889;0.9259;0.9630;1.0000" dur="5.0s" begin="1.0s" repeatCount="indefinite"/><g><animateTransform attributeName="transform" type="scale" values="1.050;1.027;1.003;0.980;0.957;0.933;0.910;0.887;0.863;0.847;0.831;0.816;0.800;0.785;0.769;0.754;0.738;0.711;0.681;0.651;0.622;0.592;0.562;0.532;0.504;0.476;0.448;0.420" keyTimes="0.0000;0.0370;0.0741;0.1111;0.1481;0.1852;0.2222;0.2593;0.2963;0.3333;0.3704;0.4074;0.4444;0.4815;0.5185;0.5556;0.5926;0.6296;0.6667;0.7037;0.7407;0.7778;0.8148;0.8519;0.8889;0.9259;0.9630;1.0000" dur="5.0s" begin="1.0s" repeatCount="indefinite"/><ellipse cx="2" cy="6" rx="13" ry="5" fill="#000000" opacity="0.4" filter="url(#carBlur)"/><ellipse cx="0" cy="24" rx="6" ry="11" fill="#39d353" opacity="0.16" filter="url(#carBlur)"/><g><animateTransform attributeName="transform" type="rotate" from="0 -9 -11" to="360 -9 -11" dur="0.22s" repeatCount="indefinite"/><ellipse cx="-9" cy="-11" rx="3.2" ry="2.4" fill="#111"/><circle cx="-9" cy="-11" r="1.1" fill="#666"/><line x1="-9" y1="-11" x2="-9" y2="-13" stroke="#999" stroke-width="0.8"/></g><g><animateTransform attributeName="transform" type="rotate" from="0 9 -11" to="360 9 -11" dur="0.22s" repeatCount="indefinite"/><ellipse cx="9" cy="-11" rx="3.2" ry="2.4" fill="#111"/><circle cx="9" cy="-11" r="1.1" fill="#666"/><line x1="9" y1="-11" x2="9" y2="-13" stroke="#999" stroke-width="0.8"/></g><g><animateTransform attributeName="transform" type="rotate" from="0 -9 11" to="360 -9 11" dur="0.22s" repeatCount="indefinite"/><ellipse cx="-9" cy="11" rx="3.2" ry="2.4" fill="#111"/><circle cx="-9" cy="11" r="1.1" fill="#666"/><line x1="-9" y1="11" x2="-9" y2="9" stroke="#999" stroke-width="0.8"/></g><g><animateTransform attributeName="transform" type="rotate" from="0 9 11" to="360 9 11" dur="0.22s" repeatCount="indefinite"/><ellipse cx="9" cy="11" rx="3.2" ry="2.4" fill="#111"/><circle cx="9" cy="11" r="1.1" fill="#666"/><line x1="9" y1="11" x2="9" y2="9" stroke="#999" stroke-width="0.8"/></g><rect x="-10" y="17" width="20" height="4" fill="#111"/><rect x="-11" y="13" width="2" height="8" fill="#95f7b6"/><rect x="9" y="13" width="2" height="8" fill="#95f7b6"/><polygon points="0,-23 7,-14 9,0 8,14 0,20 -8,14 -9,0 -7,-14" fill="#39d353"/><polygon points="0,-19 4,-11 5,0 4,10 0,16 -4,10 -5,0 -4,-11" fill="#95f7b6"/><ellipse cx="0" cy="-3" rx="5" ry="7" fill="none" stroke="#c9d1d9" stroke-width="1.2"/><ellipse cx="0" cy="-3" rx="3" ry="4" fill="#111"/><rect x="-9" y="-24" width="18" height="3" fill="#111"/></g></g>
<text x="430.0" y="190" font-size="12" fill="#6AD3FF" text-anchor="middle">mantej@github ~ $ ./race.sh  &#8212;  always building, always racing &#127954;</text>
</svg>