<svg xmlns="http://www.w3.org/2000/svg" width="860" height="500" viewBox="0 0 860 500" font-family="SFMono-Regular, Consolas, Menlo, monospace">
<defs><filter id="chipShadow" x="-20%" y="-60%" width="140%" height="240%"><feDropShadow dx="0" dy="2" stdDeviation="3" flood-color="#000000" flood-opacity="0.35"/></filter><linearGradient id="glossGrad" x1="0" y1="0" x2="0" y2="1"><stop offset="0%" stop-color="#ffffff" stop-opacity="0.22"/><stop offset="100%" stop-color="#ffffff" stop-opacity="0"/></linearGradient><radialGradient id="glow-6AD3FF" cx="50%" cy="50%" r="65%"><stop offset="0%" stop-color="#6AD3FF" stop-opacity="0.30"/><stop offset="100%" stop-color="#6AD3FF" stop-opacity="0"/></radialGradient><radialGradient id="glow-39d353" cx="50%" cy="50%" r="65%"><stop offset="0%" stop-color="#39d353" stop-opacity="0.30"/><stop offset="100%" stop-color="#39d353" stop-opacity="0"/></radialGradient><radialGradient id="glow-DC0000" cx="50%" cy="50%" r="65%"><stop offset="0%" stop-color="#DC0000" stop-opacity="0.30"/><stop offset="100%" stop-color="#DC0000" stop-opacity="0"/></radialGradient><radialGradient id="glow-a371f7" cx="50%" cy="50%" r="65%"><stop offset="0%" stop-color="#a371f7" stop-opacity="0.30"/><stop offset="100%" stop-color="#a371f7" stop-opacity="0"/></radialGradient><radialGradient id="glow-f0a020" cx="50%" cy="50%" r="65%"><stop offset="0%" stop-color="#f0a020" stop-opacity="0.30"/><stop offset="100%" stop-color="#f0a020" stop-opacity="0"/></radialGradient></defs>
<rect width="860" height="500" fill="#0d1117"/>
<text x="24" y="38.0" font-size="14" font-weight="700" fill="#6AD3FF">AI / ML &amp; LLMs</text>
<clipPath id="clip0"><rect x="24.0" y="50.0" width="95.8" height="30" rx="15.0"/></clipPath><rect x="24.0" y="50.0" width="95.8" height="30" rx="15.0" fill="#ffffff" fill-opacity="0.06" stroke="#6AD3FF" stroke-opacity="0.35" filter="url(#chipShadow)"/><ellipse cx="71.9" cy="65.0" rx="47.9" ry="15.0" fill="url(#glow-6AD3FF)" clip-path="url(#clip0)"/><rect x="24.0" y="50.0" width="95.8" height="16.5" fill="url(#glossGrad)" clip-path="url(#clip0)"/><line x1="39.0" y1="51.5" x2="104.8" y2="51.5" stroke="#ffffff" stroke-opacity="0.22" stroke-width="1" stroke-linecap="round"/><g transform="translate(38.0,58.0) scale(0.5833)"><path d="M14.25.18l.9.2.73.26.59.3.45.32.34.34.25.34.16.33.1.3.04.26.02.2-.01.13V8.5l-.05.63-.13.55-.21.46-.26.38-.3.31-.33.25-.35.19-.35.14-.33.1-.3.07-.26.04-.21.02H8.77l-.69.05-.59.14-.5.22-.41.27-.33.32-.27.35-.2.36-.15.37-.1.35-.07.32-.04.27-.02.21v3.06H3.17l-.21-.03-.28-.07-.32-.12-.35-.18-.36-.26-.36-.36-.35-.46-.32-.59-.28-.73-.21-.88-.14-1.05-.05-1.23.06-1.22.16-1.04.24-.87.32-.71.36-.57.4-.44.42-.33.42-.24.4-.16.36-.1.32-.05.24-.01h.16l.06.01h8.16v-.83H6.18l-.01-2.75-.02-.37.05-.34.11-.31.17-.28.25-.26.31-.23.38-.2.44-.18.51-.15.58-.12.64-.1.71-.06.77-.04.84-.02 1.27.05zm-6.3 1.98l-.23.33-.08.41.08.41.23.34.33.22.41.09.41-.09.33-.22.23-.34.08-.41-.08-.41-.23-.33-.33-.22-.41-.09-.41.09zm13.09 3.95l.28.06.32.12.35.18.36.27.36.35.35.47.32.59.28.73.21.88.14 1.04.05 1.23-.06 1.23-.16 1.04-.24.86-.32.71-.36.57-.4.45-.42.33-.42.24-.4.16-.36.09-.32.05-.24.02-.16-.01h-8.22v.82h5.84l.01 2.76.02.36-.05.34-.11.31-.17.29-.25.25-.31.24-.38.2-.44.17-.51.15-.58.13-.64.09-.71.07-.77.04-.84.01-1.27-.04-1.07-.14-.9-.2-.73-.25-.59-.3-.45-.33-.34-.34-.25-.34-.16-.33-.1-.3-.04-.25-.02-.2.01-.13v-5.34l.05-.64.13-.54.21-.46.26-.38.3-.32.33-.24.35-.2.35-.14.33-.1.3-.06.26-.04.21-.02.13-.01h5.84l.69-.05.59-.14.5-.21.41-.28.33-.32.27-.35.2-.36.15-.36.1-.35.07-.32.04-.28.02-.21V6.07h2.09l.14.01zm-6.47 14.25l-.23.33-.08.41.08.41.23.33.33.23.41.08.41-.08.33-.23.23-.33.08-.41-.08-.41-.23-.33-.33-.23-.41-.08-.41.08z" fill="#e6edf3"/></g><text x="59.0" y="69.5" font-size="13" fill="#e6edf3">Python</text><g clip-path="url(#clip0)"><rect y="50.0" width="10" height="30" fill="#ffffff" opacity="0"><animate attributeName="x" from="0.0" to="143.8" dur="0.6s" begin="0.23s" fill="freeze"/><animate attributeName="opacity" values="0;0.45;0" keyTimes="0;0.5;1" dur="0.6s" begin="0.23s" fill="freeze"/></rect></g>
<clipPath id="clip1"><rect x="129.8" y="50.0" width="103.6" height="30" rx="15.0"/></clipPath><rect x="129.8" y="50.0" width="103.6" height="30" rx="15.0" fill="#ffffff" fill-opacity="0.06" stroke="#6AD3FF" stroke-opacity="0.35" filter="url(#chipShadow)"/><ellipse cx="181.6" cy="65.0" rx="51.8" ry="15.0" fill="url(#glow-6AD3FF)" clip-path="url(#clip1)"/><rect x="129.8" y="50.0" width="103.6" height="16.5" fill="url(#glossGrad)" clip-path="url(#clip1)"/><line x1="144.8" y1="51.5" x2="218.4" y2="51.5" stroke="#ffffff" stroke-opacity="0.22" stroke-width="1" stroke-linecap="round"/><g transform="translate(143.8,58.0) scale(0.5833)"><path d="M12.005 0L4.952 7.053a9.865 9.865 0 000 14.022 9.866 9.866 0 0014.022 0c3.984-3.9 3.986-10.205.085-14.023l-1.744 1.743c2.904 2.905 2.904 7.634 0 10.538s-7.634 2.904-10.538 0-2.904-7.634 0-10.538l4.647-4.646.582-.665zm3.568 3.899a1.327 1.327 0 00-1.327 1.327 1.327 1.327 0 001.327 1.328A1.327 1.327 0 0016.9 5.226 1.327 1.327 0 0015.573 3.9z" fill="#e6edf3"/></g><text x="164.8" y="69.5" font-size="13" fill="#e6edf3">PyTorch</text><g clip-path="url(#clip1)"><rect y="50.0" width="10" height="30" fill="#ffffff" opacity="0"><animate attributeName="x" from="105.8" to="257.4" dur="0.6s" begin="0.35s" fill="freeze"/><animate attributeName="opacity" values="0;0.45;0" keyTimes="0;0.5;1" dur="0.6s" begin="0.35s" fill="freeze"/></rect></g>
<clipPath id="clip2"><rect x="243.4" y="50.0" width="127.0" height="30" rx="15.0"/></clipPath><rect x="243.4" y="50.0" width="127.0" height="30" rx="15.0" fill="#ffffff" fill-opacity="0.06" stroke="#6AD3FF" stroke-opacity="0.35" filter="url(#chipShadow)"/><ellipse cx="306.9" cy="65.0" rx="63.5" ry="15.0" fill="url(#glow-6AD3FF)" clip-path="url(#clip2)"/><rect x="243.4" y="50.0" width="127.0" height="16.5" fill="url(#glossGrad)" clip-path="url(#clip2)"/><line x1="258.4" y1="51.5" x2="355.4" y2="51.5" stroke="#ffffff" stroke-opacity="0.22" stroke-width="1" stroke-linecap="round"/><g transform="translate(257.4,58.0) scale(0.5833)"><path d="M1.292 5.856L11.54 0v24l-4.095-2.378V7.603l-6.168 3.564.015-5.31zm21.43 5.311l-.014-5.31L12.46 0v24l4.095-2.378V14.87l3.092 1.788-.018-4.618-3.074-1.756V7.603l6.168 3.564z" fill="#e6edf3"/></g><text x="278.4" y="69.5" font-size="13" fill="#e6edf3">TensorFlow</text><g clip-path="url(#clip2)"><rect y="50.0" width="10" height="30" fill="#ffffff" opacity="0"><animate attributeName="x" from="219.4" to="394.4" dur="0.6s" begin="0.48s" fill="freeze"/><animate attributeName="opacity" values="0;0.45;0" keyTimes="0;0.5;1" dur="0.6s" begin="0.48s" fill="freeze"/></rect></g>
<clipPath id="clip3"><rect x="380.4" y="50.0" width="142.6" height="30" rx="15.0"/></clipPath><rect x="380.4" y="50.0" width="142.6" height="30" rx="15.0" fill="#ffffff" fill-opacity="0.06" stroke="#6AD3FF" stroke-opacity="0.35" filter="url(#chipShadow)"/><ellipse cx="451.7" cy="65.0" rx="71.3" ry="15.0" fill="url(#glow-6AD3FF)" clip-path="url(#clip3)"/><rect x="380.4" y="50.0" width="142.6" height="16.5" fill="url(#glossGrad)" clip-path="url(#clip3)"/><line x1="395.4" y1="51.5" x2="508.0" y2="51.5" stroke="#ffffff" stroke-opacity="0.22" stroke-width="1" stroke-linecap="round"/><g transform="translate(394.4,58.0) scale(0.5833)"><path d="M12.025 1.13c-5.77 0-10.449 4.647-10.449 10.378 0 1.112.178 2.181.503 3.185.064-.222.203-.444.416-.577a.96.96 0 0 1 .524-.15c.293 0 .584.124.84.284.278.173.48.408.71.694.226.282.458.611.684.951v-.014c.017-.324.106-.622.264-.874s.403-.487.762-.543c.3-.047.596.06.787.203s.31.313.4.467c.15.257.212.468.233.542.01.026.653 1.552 1.657 2.54.616.605 1.01 1.223 1.082 1.912.055.537-.096 1.059-.38 1.572.637.121 1.294.187 1.967.187.657 0 1.298-.063 1.921-.178-.287-.517-.44-1.041-.384-1.581.07-.69.465-1.307 1.081-1.913 1.004-.987 1.647-2.513 1.657-2.539.021-.074.083-.285.233-.542.09-.154.208-.323.4-.467a1.08 1.08 0 0 1 .787-.203c.359.056.604.29.762.543s.247.55.265.874v.015c.225-.34.457-.67.683-.952.23-.286.432-.52.71-.694.257-.16.547-.284.84-.285a.97.97 0 0 1 .524.151c.228.143.373.388.43.625l.006.04a10.3 10.3 0 0 0 .534-3.273c0-5.731-4.678-10.378-10.449-10.378M8.327 6.583a1.5 1.5 0 0 1 .713.174 1.487 1.487 0 0 1 .617 2.013c-.183.343-.762-.214-1.102-.094-.38.134-.532.914-.917.71a1.487 1.487 0 0 1 .69-2.803m7.486 0a1.487 1.487 0 0 1 .689 2.803c-.385.204-.536-.576-.916-.71-.34-.12-.92.437-1.103.094a1.487 1.487 0 0 1 .617-2.013 1.5 1.5 0 0 1 .713-.174m-10.68 1.55a.96.96 0 1 1 0 1.921.96.96 0 0 1 0-1.92m13.838 0a.96.96 0 1 1 0 1.92.96.96 0 0 1 0-1.92M8.489 11.458c.588.01 1.965 1.157 3.572 1.164 1.607-.007 2.984-1.155 3.572-1.164.196-.003.305.12.305.454 0 .886-.424 2.328-1.563 3.202-.22-.756-1.396-1.366-1.63-1.32q-.011.001-.02.006l-.044.026-.01.008-.03.024q-.018.017-.035.036l-.032.04a1 1 0 0 0-.058.09l-.014.025q-.049.088-.11.19a1 1 0 0 1-.083.116 1.2 1.2 0 0 1-.173.18q-.035.029-.075.058a1.3 1.3 0 0 1-.251-.243 1 1 0 0 1-.076-.107c-.124-.193-.177-.363-.337-.444-.034-.016-.104-.008-.2.022q-.094.03-.216.087-.06.028-.125.063l-.13.074q-.067.04-.136.086a3 3 0 0 0-.135.096 3 3 0 0 0-.26.219 2 2 0 0 0-.12.121 2 2 0 0 0-.106.128l-.002.002a2 2 0 0 0-.09.132l-.001.001a1.2 1.2 0 0 0-.105.212q-.013.036-.024.073c-1.139-.875-1.563-2.317-1.563-3.203 0-.334.109-.457.305-.454m.836 10.354c.824-1.19.766-2.082-.365-3.194-1.13-1.112-1.789-2.738-1.789-2.738s-.246-.945-.806-.858-.97 1.499.202 2.362c1.173.864-.233 1.45-.685.64-.45-.812-1.683-2.896-2.322-3.295s-1.089-.175-.938.647 2.822 2.813 2.562 3.244-1.176-.506-1.176-.506-2.866-2.567-3.49-1.898.473 1.23 2.037 2.16c1.564.932 1.686 1.178 1.464 1.53s-3.675-2.511-4-1.297c-.323 1.214 3.524 1.567 3.287 2.405-.238.839-2.71-1.587-3.216-.642-.506.946 3.49 2.056 3.522 2.064 1.29.33 4.568 1.028 5.713-.624m5.349 0c-.824-1.19-.766-2.082.365-3.194 1.13-1.112 1.789-2.738 1.789-2.738s.246-.945.806-.858.97 1.499-.202 2.362c-1.173.864.233 1.45.685.64.451-.812 1.683-2.896 2.322-3.295s1.089-.175.938.647-2.822 2.813-2.562 3.244 1.176-.506 1.176-.506 2.866-2.567 3.49-1.898-.473 1.23-2.037 2.16c-1.564.932-1.686 1.178-1.464 1.53s3.675-2.511 4-1.297c.323 1.214-3.524 1.567-3.287 2.405.238.839 2.71-1.587 3.216-.642.506.946-3.49 2.056-3.522 2.064-1.29.33-4.568 1.028-5.713-.624" fill="#e6edf3"/></g><text x="415.4" y="69.5" font-size="13" fill="#e6edf3">Hugging Face</text><g clip-path="url(#clip3)"><rect y="50.0" width="10" height="30" fill="#ffffff" opacity="0"><animate attributeName="x" from="356.4" to="547.0" dur="0.6s" begin="0.64s" fill="freeze"/><animate attributeName="opacity" values="0;0.45;0" keyTimes="0;0.5;1" dur="0.6s" begin="0.64s" fill="freeze"/></rect></g>
<clipPath id="clip4"><rect x="533.0" y="50.0" width="119.2" height="30" rx="15.0"/></clipPath><rect x="533.0" y="50.0" width="119.2" height="30" rx="15.0" fill="#ffffff" fill-opacity="0.06" stroke="#6AD3FF" stroke-opacity="0.35" filter="url(#chipShadow)"/><ellipse cx="592.6" cy="65.0" rx="59.6" ry="15.0" fill="url(#glow-6AD3FF)" clip-path="url(#clip4)"/><rect x="533.0" y="50.0" width="119.2" height="16.5" fill="url(#glossGrad)" clip-path="url(#clip4)"/><line x1="548.0" y1="51.5" x2="637.2" y2="51.5" stroke="#ffffff" stroke-opacity="0.22" stroke-width="1" stroke-linecap="round"/><g transform="translate(547.0,58.0) scale(0.5833)"><path d="M13.796 0a6.93 6.93 0 0 0-4.91 2.019L5.451 5.455l3.273 3.27 3.432-3.432a2.284 2.284 0 0 1 3.277 0 2.28 2.28 0 0 1 0 3.275L12 12.001l3.273 3.273 3.433-3.435c2.692-2.692 2.692-7.127 0-9.82A6.92 6.92 0 0 0 13.796 0m-5.07 8.728-3.433 3.434c-2.692 2.693-2.692 7.126 0 9.819A6.92 6.92 0 0 0 10.203 24a6.93 6.93 0 0 0 4.911-2.02l3.432-3.432-3.271-3.272-3.433 3.433a2.284 2.284 0 0 1-3.277 0 2.28 2.28 0 0 1 0-3.276L12 12z" fill="#e6edf3"/></g><text x="568.0" y="69.5" font-size="13" fill="#e6edf3">LangChain</text><g clip-path="url(#clip4)"><rect y="50.0" width="10" height="30" fill="#ffffff" opacity="0"><animate attributeName="x" from="509.0" to="676.2" dur="0.6s" begin="0.82s" fill="freeze"/><animate attributeName="opacity" values="0;0.45;0" keyTimes="0;0.5;1" dur="0.6s" begin="0.82s" fill="freeze"/></rect></g>
<clipPath id="clip5"><rect x="662.2" y="50.0" width="95.8" height="30" rx="15.0"/></clipPath><rect x="662.2" y="50.0" width="95.8" height="30" rx="15.0" fill="#ffffff" fill-opacity="0.06" stroke="#6AD3FF" stroke-opacity="0.35" filter="url(#chipShadow)"/><ellipse cx="710.1" cy="65.0" rx="47.9" ry="15.0" fill="url(#glow-6AD3FF)" clip-path="url(#clip5)"/><rect x="662.2" y="50.0" width="95.8" height="16.5" fill="url(#glossGrad)" clip-path="url(#clip5)"/><line x1="677.2" y1="51.5" x2="743.0" y2="51.5" stroke="#ffffff" stroke-opacity="0.22" stroke-width="1" stroke-linecap="round"/><g transform="translate(676.2,58.0) scale(0.5833)"><path d="M22.2819 9.8211a5.9847 5.9847 0 0 0-.5157-4.9108 6.0462 6.0462 0 0 0-6.5098-2.9A6.0651 6.0651 0 0 0 4.9807 4.1818a5.9847 5.9847 0 0 0-3.9977 2.9 6.0462 6.0462 0 0 0 .7427 7.0966 5.98 5.98 0 0 0 .511 4.9107 6.051 6.051 0 0 0 6.5146 2.9001A5.9847 5.9847 0 0 0 13.2599 24a6.0557 6.0557 0 0 0 5.7718-4.2058 5.9894 5.9894 0 0 0 3.9977-2.9001 6.0557 6.0557 0 0 0-.7475-7.0729zm-9.022 12.6081a4.4755 4.4755 0 0 1-2.8764-1.0408l.1419-.0804 4.7783-2.7582a.7948.7948 0 0 0 .3927-.6813v-6.7369l2.02 1.1686a.071.071 0 0 1 .038.052v5.5826a4.504 4.504 0 0 1-4.4945 4.4944zm-9.6607-4.1254a4.4708 4.4708 0 0 1-.5346-3.0137l.142.0852 4.783 2.7582a.7712.7712 0 0 0 .7806 0l5.8428-3.3685v2.3324a.0804.0804 0 0 1-.0332.0615L9.74 19.9502a4.4992 4.4992 0 0 1-6.1408-1.6464zM2.3408 7.8956a4.485 4.485 0 0 1 2.3655-1.9728V11.6a.7664.7664 0 0 0 .3879.6765l5.8144 3.3543-2.0201 1.1685a.0757.0757 0 0 1-.071 0l-4.8303-2.7865A4.504 4.504 0 0 1 2.3408 7.872zm16.5963 3.8558L13.1038 8.364 15.1192 7.2a.0757.0757 0 0 1 .071 0l4.8303 2.7913a4.4944 4.4944 0 0 1-.6765 8.1042v-5.6772a.79.79 0 0 0-.407-.667zm2.0107-3.0231l-.142-.0852-4.7735-2.7818a.7759.7759 0 0 0-.7854 0L9.409 9.2297V6.8974a.0662.0662 0 0 1 .0284-.0615l4.8303-2.7866a4.4992 4.4992 0 0 1 6.6802 4.66zM8.3065 12.863l-2.02-1.1638a.0804.0804 0 0 1-.038-.0567V6.0742a4.4992 4.4992 0 0 1 7.3757-3.4537l-.142.0805L8.704 5.459a.7948.7948 0 0 0-.3927.6813zm1.0976-2.3654l2.602-1.4998 2.6069 1.4998v2.9994l-2.5974 1.4997-2.6067-1.4997Z" fill="#e6edf3"/></g><text x="697.2" y="69.5" font-size="13" fill="#e6edf3">OpenAI</text><g clip-path="url(#clip5)"><rect y="50.0" width="10" height="30" fill="#ffffff" opacity="0"><animate attributeName="x" from="638.2" to="782.0" dur="0.6s" begin="0.97s" fill="freeze"/><animate attributeName="opacity" values="0;0.45;0" keyTimes="0;0.5;1" dur="0.6s" begin="0.97s" fill="freeze"/></rect></g>
<clipPath id="clip6"><rect x="24.0" y="92.0" width="72.4" height="30" rx="15.0"/></clipPath><rect x="24.0" y="92.0" width="72.4" height="30" rx="15.0" fill="#ffffff" fill-opacity="0.06" stroke="#6AD3FF" stroke-opacity="0.35" filter="url(#chipShadow)"/><ellipse cx="60.2" cy="107.0" rx="36.2" ry="15.0" fill="url(#glow-6AD3FF)" clip-path="url(#clip6)"/><rect x="24.0" y="92.0" width="72.4" height="16.5" fill="url(#glossGrad)" clip-path="url(#clip6)"/><line x1="39.0" y1="93.5" x2="81.4" y2="93.5" stroke="#ffffff" stroke-opacity="0.22" stroke-width="1" stroke-linecap="round"/><circle cx="45.0" cy="107.0" r="7.0" fill="#6AD3FF" fill-opacity="0.22" stroke="#6AD3FF" stroke-opacity="0.6"/><text x="45.0" y="109.5" font-size="7" font-weight="700" fill="#6AD3FF" text-anchor="middle">R</text><text x="59.0" y="111.5" font-size="13" fill="#e6edf3">RAG</text><g clip-path="url(#clip6)"><rect y="92.0" width="10" height="30" fill="#ffffff" opacity="0"><animate attributeName="x" from="0.0" to="120.4" dur="0.6s" begin="0.23s" fill="freeze"/><animate attributeName="opacity" values="0;0.45;0" keyTimes="0;0.5;1" dur="0.6s" begin="0.23s" fill="freeze"/></rect></g>
<clipPath id="clip7"><rect x="106.4" y="92.0" width="72.4" height="30" rx="15.0"/></clipPath><rect x="106.4" y="92.0" width="72.4" height="30" rx="15.0" fill="#ffffff" fill-opacity="0.06" stroke="#6AD3FF" stroke-opacity="0.35" filter="url(#chipShadow)"/><ellipse cx="142.6" cy="107.0" rx="36.2" ry="15.0" fill="url(#glow-6AD3FF)" clip-path="url(#clip7)"/><rect x="106.4" y="92.0" width="72.4" height="16.5" fill="url(#glossGrad)" clip-path="url(#clip7)"/><line x1="121.4" y1="93.5" x2="163.8" y2="93.5" stroke="#ffffff" stroke-opacity="0.22" stroke-width="1" stroke-linecap="round"/><circle cx="127.4" cy="107.0" r="7.0" fill="#6AD3FF" fill-opacity="0.22" stroke="#6AD3FF" stroke-opacity="0.6"/><text x="127.4" y="109.5" font-size="7" font-weight="700" fill="#6AD3FF" text-anchor="middle">N</text><text x="141.4" y="111.5" font-size="13" fill="#e6edf3">NLP</text><g clip-path="url(#clip7)"><rect y="92.0" width="10" height="30" fill="#ffffff" opacity="0"><animate attributeName="x" from="82.4" to="202.8" dur="0.6s" begin="0.32s" fill="freeze"/><animate attributeName="opacity" values="0;0.45;0" keyTimes="0;0.5;1" dur="0.6s" begin="0.32s" fill="freeze"/></rect></g>
<clipPath id="clip8"><rect x="188.8" y="92.0" width="166.0" height="30" rx="15.0"/></clipPath><rect x="188.8" y="92.0" width="166.0" height="30" rx="15.0" fill="#ffffff" fill-opacity="0.06" stroke="#6AD3FF" stroke-opacity="0.35" filter="url(#chipShadow)"/><ellipse cx="271.8" cy="107.0" rx="83.0" ry="15.0" fill="url(#glow-6AD3FF)" clip-path="url(#clip8)"/><rect x="188.8" y="92.0" width="166.0" height="16.5" fill="url(#glossGrad)" clip-path="url(#clip8)"/><line x1="203.8" y1="93.5" x2="339.8" y2="93.5" stroke="#ffffff" stroke-opacity="0.22" stroke-width="1" stroke-linecap="round"/><circle cx="209.8" cy="107.0" r="7.0" fill="#6AD3FF" fill-opacity="0.22" stroke="#6AD3FF" stroke-opacity="0.6"/><text x="209.8" y="109.5" font-size="7" font-weight="700" fill="#6AD3FF" text-anchor="middle">CV</text><text x="223.8" y="111.5" font-size="13" fill="#e6edf3">Computer Vision</text><g clip-path="url(#clip8)"><rect y="92.0" width="10" height="30" fill="#ffffff" opacity="0"><animate attributeName="x" from="164.8" to="378.8" dur="0.6s" begin="0.42s" fill="freeze"/><animate attributeName="opacity" values="0;0.45;0" keyTimes="0;0.5;1" dur="0.6s" begin="0.42s" fill="freeze"/></rect></g>
<clipPath id="clip9"><rect x="364.8" y="92.0" width="142.6" height="30" rx="15.0"/></clipPath><rect x="364.8" y="92.0" width="142.6" height="30" rx="15.0" fill="#ffffff" fill-opacity="0.06" stroke="#6AD3FF" stroke-opacity="0.35" filter="url(#chipShadow)"/><ellipse cx="436.1" cy="107.0" rx="71.3" ry="15.0" fill="url(#glow-6AD3FF)" clip-path="url(#clip9)"/><rect x="364.8" y="92.0" width="142.6" height="16.5" fill="url(#glossGrad)" clip-path="url(#clip9)"/><line x1="379.8" y1="93.5" x2="492.4" y2="93.5" stroke="#ffffff" stroke-opacity="0.22" stroke-width="1" stroke-linecap="round"/><g transform="translate(378.8,100.0) scale(0.5833)"><path d="M15.601 5.53c-1.91.035-3.981.91-5.63 2.56-2.93 2.93-2.083 8.53-1.088 9.525.805.804 6.595 1.843 9.526-1.088a9.74 9.74 0 0 0 .584-.643c.043-.292.205-.66.489-1.106a1.848 1.848 0 0 1-.537.176c-.144.265-.37.55-.676.855-.354.335-.607.554-.76.656a.795.795 0 0 1-.437.152c-.35 0-.514-.308-.494-.924-.22.316-.425.549-.612.7a.914.914 0 0 1-.578.224c-.194 0-.36-.09-.496-.273a1.03 1.03 0 0 1-.193-.507 4.016 4.016 0 0 1-.726.583c-.224.132-.47.197-.74.197-.3 0-.543-.096-.727-.288a.978.978 0 0 1-.257-.524v.004c-.3.276-.564.48-.79.611a1.295 1.295 0 0 1-.649.197.693.693 0 0 1-.571-.275c-.145-.183-.218-.43-.218-.739 0-.464.101-1.02.302-1.67.201-.65.445-1.25.733-1.797l.842-.312a.21.21 0 0 1 .06-.013c.063 0 .116.047.157.14.04.095.061.221.061.38 0 .451-.104.888-.312 1.31-.207.422-.532.873-.974 1.352-.018.23-.027.388-.027.474 0 .193.036.345.106.458.071.113.165.169.282.169a.71.71 0 0 0 .382-.13c.132-.084.333-.26.602-.523.028-.418.187-.798.482-1.142.324-.38.685-.569 1.08-.569.206 0 .37.054.494.16a.524.524 0 0 1 .186.417c0 .458-.486.829-1.459 1.114.088.43.32.646.693.646a.807.807 0 0 0 .417-.117c.129-.076.321-.243.575-.497.032-.252.118-.495.259-.728.182-.3.416-.544.701-.73.285-.185.537-.278.756-.278.276 0 .47.127.58.381l.677-.374h.186l-.292.971c-.15.488-.226.823-.226 1.004 0 .19.067.285.202.285.086 0 .181-.045.285-.137.104-.092.25-.232.437-.42v.001c.143-.155.274-.32.392-.494-.19-.084-.285-.21-.285-.375 0-.17.058-.352.174-.545.116-.194.275-.29.479-.29.172 0 .258.088.258.265 0 .139-.05.338-.149.596.367-.04.687-.32.961-.842l.228-.01c1.059-2.438.828-5.075-.83-6.732-1.019-1.02-2.408-1.5-3.895-1.471zm4.725 8.203a8.938 8.938 0 0 1-1.333 2.151 1.09 1.09 0 0 0-.012.147c0 .168.047.309.14.423.092.113.206.17.34.17.296 0 .714-.264 1.254-.787-.001.04-.003.08-.003.121 0 .146.012.368.036.666l.733-.172c0-.2.003-.357.01-.474.01-.157.033-.33.066-.517.02-.11.07-.216.152-.315l.186-.216a5.276 5.276 0 0 1 .378-.397c.062-.055.116-.099.162-.13a.26.26 0 0 1 .123-.046c.055 0 .083.035.083.106 0 .07-.052.236-.156.497-.194.486-.292.848-.292 1.084 0 .175.046.314.136.418a.45.45 0 0 0 .358.155c.365 0 .803-.269 1.313-.808v-.381c-.361.426-.623.64-.784.64-.109 0-.163-.067-.163-.2 0-.1.065-.316.195-.65.19-.486.285-.836.285-1.048a.464.464 0 0 0-.112-.319.36.36 0 0 0-.282-.127c-.165 0-.354.077-.567.233-.213.156-.5.436-.863.84.053-.262.165-.622.335-1.08l-.809.156a6.54 6.54 0 0 0-.399 1.074c-.04.156-.07.316-.092.48a7.447 7.447 0 0 1-.49.45.38.38 0 0 1-.229.08.208.208 0 0 1-.174-.082.352.352 0 0 1-.064-.222c0-.1.019-.214.056-.343.038-.13.12-.373.249-.731l.308-.849zm-17.21-2.927c-.863-.016-1.67.263-2.261.854-1.352 1.352-1.07 3.827.631 5.527 1.7 1.701 4.95 1.21 5.527.632.467-.466 1.07-3.827-.631-5.527-.957-.957-2.158-1.465-3.267-1.486zm12.285.358h.166v.21H15.4zm.427 0h.166v.865l.46-.455h.195l-.364.362.428.684h-.198l-.357-.575-.164.166v.41h-.166zm1.016 0h.166v.21h-.166zm.481.122h.166v.288h.172v.135h-.172v.717c0 .037.006.062.02.075.012.013.037.02.074.02a.23.23 0 0 0 .078-.01v.141a.802.802 0 0 1-.136.014.23.23 0 0 1-.15-.043.15.15 0 0 1-.052-.123v-.79h-.141v-.136h.141zm-3.562.258c.081 0 .15.012.207.038.057.024.1.061.13.11s.045.106.045.173h-.176c-.006-.111-.075-.167-.208-.167a.285.285 0 0 0-.164.041.134.134 0 0 0-.06.117c0 .035.015.065.045.088.03.024.08.044.15.06l.16.039a.47.47 0 0 1 .224.105c.047.046.07.108.07.186a.3.3 0 0 1-.052.175.327.327 0 0 1-.152.116.585.585 0 0 1-.226.041c-.136 0-.24-.03-.309-.088-.069-.059-.105-.149-.109-.269h.176c.004.037.01.065.017.084a.166.166 0 0 0 .034.054c.044.043.112.065.204.065a.31.31 0 0 0 .177-.045.139.139 0 0 0 .067-.119.116.116 0 0 0-.038-.09.287.287 0 0 0-.124-.055l-.156-.038a1.248 1.248 0 0 1-.159-.05.359.359 0 0 1-.098-.061.22.22 0 0 1-.058-.083.32.32 0 0 1-.016-.108c0-.096.036-.174.109-.232a.45.45 0 0 1 .29-.087zm1.035 0a.46.46 0 0 1 .202.043.351.351 0 0 1 .187.212.577.577 0 0 1 .023.126h-.168a.256.256 0 0 0-.078-.168.242.242 0 0 0-.17-.06.248.248 0 0 0-.155.05.306.306 0 0 0-.1.144.662.662 0 0 0-.034.224.58.58 0 0 0 .035.214.299.299 0 0 0 .101.135.261.261 0 0 0 .157.048c.142 0 .227-.084.256-.252h.167a.519.519 0 0 1-.065.22.35.35 0 0 1-.146.138.464.464 0 0 1-.216.048.448.448 0 0 1-.246-.066.441.441 0 0 1-.161-.192.703.703 0 0 1-.057-.293c0-.085.01-.163.032-.233a.522.522 0 0 1 .095-.182.403.403 0 0 1 .15-.117.453.453 0 0 1 .191-.04zm.603.03h.166v1.046H15.4zm1.443 0h.166v1.046h-.166zm-5.05.618c-.08 0-.2.204-.356.611-.155.407-.308.977-.459 1.71.281-.312.509-.662.683-1.05.175-.387.262-.72.262-.999a.455.455 0 0 0-.036-.197c-.025-.05-.056-.075-.093-.075zm4.662 1.797c-.221 0-.431.188-.629.563-.197.376-.296.722-.296 1.038 0 .12.029.216.088.29a.273.273 0 0 0 .223.111c.221 0 .43-.188.625-.565.196-.377.294-.725.294-1.043a.457.457 0 0 0-.083-.29.269.269 0 0 0-.222-.104zm-2.848.007c-.146 0-.285.11-.417.333-.133.222-.2.51-.2.866.566-.159.849-.452.849-.881 0-.212-.077-.318-.232-.318Z" fill="#e6edf3"/></g><text x="399.8" y="111.5" font-size="13" fill="#e6edf3">Scikit-learn</text><g clip-path="url(#clip9)"><rect y="92.0" width="10" height="30" fill="#ffffff" opacity="0"><animate attributeName="x" from="340.8" to="531.4" dur="0.6s" begin="0.62s" fill="freeze"/><animate attributeName="opacity" values="0;0.45;0" keyTimes="0;0.5;1" dur="0.6s" begin="0.62s" fill="freeze"/></rect></g>
<clipPath id="clip10"><rect x="517.4" y="92.0" width="95.8" height="30" rx="15.0"/></clipPath><rect x="517.4" y="92.0" width="95.8" height="30" rx="15.0" fill="#ffffff" fill-opacity="0.06" stroke="#6AD3FF" stroke-opacity="0.35" filter="url(#chipShadow)"/><ellipse cx="565.3" cy="107.0" rx="47.9" ry="15.0" fill="url(#glow-6AD3FF)" clip-path="url(#clip10)"/><rect x="517.4" y="92.0" width="95.8" height="16.5" fill="url(#glossGrad)" clip-path="url(#clip10)"/><line x1="532.4" y1="93.5" x2="598.2" y2="93.5" stroke="#ffffff" stroke-opacity="0.22" stroke-width="1" stroke-linecap="round"/><g transform="translate(531.4,100.0) scale(0.5833)"><path d="M16.922 0h2.623v18.104h-2.623zm-4.126 12.94h2.623v2.57h-2.623zm0-7.037h2.623v5.446h-2.623zm0 11.197h2.623v5.446h-2.623zM4.456 5.896h2.622V24H4.455zm4.213 2.559h2.623v2.57H8.67zm0 4.151h2.623v5.447H8.67zm0-11.187h2.623v5.446H8.67Z" fill="#e6edf3"/></g><text x="552.4" y="111.5" font-size="13" fill="#e6edf3">Pandas</text><g clip-path="url(#clip10)"><rect y="92.0" width="10" height="30" fill="#ffffff" opacity="0"><animate attributeName="x" from="493.4" to="637.2" dur="0.6s" begin="0.80s" fill="freeze"/><animate attributeName="opacity" values="0;0.45;0" keyTimes="0;0.5;1" dur="0.6s" begin="0.80s" fill="freeze"/></rect></g>
<clipPath id="clip11"><rect x="623.2" y="92.0" width="88.0" height="30" rx="15.0"/></clipPath><rect x="623.2" y="92.0" width="88.0" height="30" rx="15.0" fill="#ffffff" fill-opacity="0.06" stroke="#6AD3FF" stroke-opacity="0.35" filter="url(#chipShadow)"/><ellipse cx="667.2" cy="107.0" rx="44.0" ry="15.0" fill="url(#glow-6AD3FF)" clip-path="url(#clip11)"/><rect x="623.2" y="92.0" width="88.0" height="16.5" fill="url(#glossGrad)" clip-path="url(#clip11)"/><line x1="638.2" y1="93.5" x2="696.2" y2="93.5" stroke="#ffffff" stroke-opacity="0.22" stroke-width="1" stroke-linecap="round"/><g transform="translate(637.2,100.0) scale(0.5833)"><path d="M10.315 4.876L6.3048 2.8517l-4.401 2.1965 4.1186 2.0683zm1.8381.9277l4.2045 2.1223-4.3622 2.1906-4.125-2.0718zm5.6153-2.9213l4.3193 2.1658-3.863 1.9402-4.2131-2.1252zm-1.859-.9329L12.021 0 8.1742 1.9193l4.0068 2.0208zm-3.0401 16.7443V24l4.7107-2.3507-.0053-5.3085zm4.7037-4.2057l-.0052-5.2528-4.6985 2.3356v5.2546zm5.6553-.9845v5.327l-4.0178 2.0052-.0029-5.3028zm0-1.8626V6.4214l-4.0253 2.001.0034 5.2633zM11.2062 11.571L8.0333 9.9756v6.895s-3.8804-8.2564-4.2399-8.998c-.0463-.0957-.2371-.2007-.2858-.2262C2.8118 7.2812.773 6.2485.773 6.2485V18.43l2.8204 1.5076v-6.3674s3.8392 7.3775 3.878 7.458c.0389.0807.4245.8582.8362 1.1314.5485.363 2.8992 1.7766 2.8992 1.7766z" fill="#e6edf3"/></g><text x="658.2" y="111.5" font-size="13" fill="#e6edf3">NumPy</text><g clip-path="url(#clip11)"><rect y="92.0" width="10" height="30" fill="#ffffff" opacity="0"><animate attributeName="x" from="599.2" to="735.2" dur="0.6s" begin="0.92s" fill="freeze"/><animate attributeName="opacity" values="0;0.45;0" keyTimes="0;0.5;1" dur="0.6s" begin="0.92s" fill="freeze"/></rect></g>
<text x="24" y="158.0" font-size="14" font-weight="700" fill="#39d353">Web / Backend</text>
<clipPath id="clip12"><rect x="24.0" y="170.0" width="127.0" height="30" rx="15.0"/></clipPath><rect x="24.0" y="170.0" width="127.0" height="30" rx="15.0" fill="#ffffff" fill-opacity="0.06" stroke="#39d353" stroke-opacity="0.35" filter="url(#chipShadow)"/><ellipse cx="87.5" cy="185.0" rx="63.5" ry="15.0" fill="url(#glow-39d353)" clip-path="url(#clip12)"/><rect x="24.0" y="170.0" width="127.0" height="16.5" fill="url(#glossGrad)" clip-path="url(#clip12)"/><line x1="39.0" y1="171.5" x2="136.0" y2="171.5" stroke="#ffffff" stroke-opacity="0.22" stroke-width="1" stroke-linecap="round"/><g transform="translate(38.0,178.0) scale(0.5833)"><path d="M1.125 0C.502 0 0 .502 0 1.125v21.75C0 23.498.502 24 1.125 24h21.75c.623 0 1.125-.502 1.125-1.125V1.125C24 .502 23.498 0 22.875 0zm17.363 9.75c.612 0 1.154.037 1.627.111a6.38 6.38 0 0 1 1.306.34v2.458a3.95 3.95 0 0 0-.643-.361 5.093 5.093 0 0 0-.717-.26 5.453 5.453 0 0 0-1.426-.2c-.3 0-.573.028-.819.086a2.1 2.1 0 0 0-.623.242c-.17.104-.3.229-.393.374a.888.888 0 0 0-.14.49c0 .196.053.373.156.529.104.156.252.304.443.444s.423.276.696.41c.273.135.582.274.926.416.47.197.892.407 1.266.628.374.222.695.473.963.753.268.279.472.598.614.957.142.359.214.776.214 1.253 0 .657-.125 1.21-.373 1.656a3.033 3.033 0 0 1-1.012 1.085 4.38 4.38 0 0 1-1.487.596c-.566.12-1.163.18-1.79.18a9.916 9.916 0 0 1-1.84-.164 5.544 5.544 0 0 1-1.512-.493v-2.63a5.033 5.033 0 0 0 3.237 1.2c.333 0 .624-.03.872-.09.249-.06.456-.144.623-.25.166-.108.29-.234.373-.38a1.023 1.023 0 0 0-.074-1.089 2.12 2.12 0 0 0-.537-.5 5.597 5.597 0 0 0-.807-.444 27.72 27.72 0 0 0-1.007-.436c-.918-.383-1.602-.852-2.053-1.405-.45-.553-.676-1.222-.676-2.005 0-.614.123-1.141.369-1.582.246-.441.58-.804 1.004-1.089a4.494 4.494 0 0 1 1.47-.629 7.536 7.536 0 0 1 1.77-.201zm-15.113.188h9.563v2.166H9.506v9.646H6.789v-9.646H3.375z" fill="#e6edf3"/></g><text x="59.0" y="189.5" font-size="13" fill="#e6edf3">TypeScript</text><g clip-path="url(#clip12)"><rect y="170.0" width="10" height="30" fill="#ffffff" opacity="0"><animate attributeName="x" from="0.0" to="175.0" dur="0.6s" begin="0.23s" fill="freeze"/><animate attributeName="opacity" values="0;0.45;0" keyTimes="0;0.5;1" dur="0.6s" begin="0.23s" fill="freeze"/></rect></g>
<clipPath id="clip13"><rect x="161.0" y="170.0" width="127.0" height="30" rx="15.0"/></clipPath><rect x="161.0" y="170.0" width="127.0" height="30" rx="15.0" fill="#ffffff" fill-opacity="0.06" stroke="#39d353" stroke-opacity="0.35" filter="url(#chipShadow)"/><ellipse cx="224.5" cy="185.0" rx="63.5" ry="15.0" fill="url(#glow-39d353)" clip-path="url(#clip13)"/><rect x="161.0" y="170.0" width="127.0" height="16.5" fill="url(#glossGrad)" clip-path="url(#clip13)"/><line x1="176.0" y1="171.5" x2="273.0" y2="171.5" stroke="#ffffff" stroke-opacity="0.22" stroke-width="1" stroke-linecap="round"/><g transform="translate(175.0,178.0) scale(0.5833)"><path d="M0 0h24v24H0V0zm22.034 18.276c-.175-1.095-.888-2.015-3.003-2.873-.736-.345-1.554-.585-1.797-1.14-.091-.33-.105-.51-.046-.705.15-.646.915-.84 1.515-.66.39.12.75.42.976.9 1.034-.676 1.034-.676 1.755-1.125-.27-.42-.404-.601-.586-.78-.63-.705-1.469-1.065-2.834-1.034l-.705.089c-.676.165-1.32.525-1.71 1.005-1.14 1.291-.811 3.541.569 4.471 1.365 1.02 3.361 1.244 3.616 2.205.24 1.17-.87 1.545-1.966 1.41-.811-.18-1.26-.586-1.755-1.336l-1.83 1.051c.21.48.45.689.81 1.109 1.74 1.756 6.09 1.666 6.871-1.004.029-.09.24-.705.074-1.65l.046.067zm-8.983-7.245h-2.248c0 1.938-.009 3.864-.009 5.805 0 1.232.063 2.363-.138 2.711-.33.689-1.18.601-1.566.48-.396-.196-.597-.466-.83-.855-.063-.105-.11-.196-.127-.196l-1.825 1.125c.305.63.75 1.172 1.324 1.517.855.51 2.004.675 3.207.405.783-.226 1.458-.691 1.811-1.411.51-.93.402-2.07.397-3.346.012-2.054 0-4.109 0-6.179l.004-.056z" fill="#e6edf3"/></g><text x="196.0" y="189.5" font-size="13" fill="#e6edf3">JavaScript</text><g clip-path="url(#clip13)"><rect y="170.0" width="10" height="30" fill="#ffffff" opacity="0"><animate attributeName="x" from="137.0" to="312.0" dur="0.6s" begin="0.39s" fill="freeze"/><animate attributeName="opacity" values="0;0.45;0" keyTimes="0;0.5;1" dur="0.6s" begin="0.39s" fill="freeze"/></rect></g>
<clipPath id="clip14"><rect x="298.0" y="170.0" width="103.6" height="30" rx="15.0"/></clipPath><rect x="298.0" y="170.0" width="103.6" height="30" rx="15.0" fill="#ffffff" fill-opacity="0.06" stroke="#39d353" stroke-opacity="0.35" filter="url(#chipShadow)"/><ellipse cx="349.8" cy="185.0" rx="51.8" ry="15.0" fill="url(#glow-39d353)" clip-path="url(#clip14)"/><rect x="298.0" y="170.0" width="103.6" height="16.5" fill="url(#glossGrad)" clip-path="url(#clip14)"/><line x1="313.0" y1="171.5" x2="386.6" y2="171.5" stroke="#ffffff" stroke-opacity="0.22" stroke-width="1" stroke-linecap="round"/><g transform="translate(312.0,178.0) scale(0.5833)"><path d="M18.665 21.978C16.758 23.255 14.465 24 12 24 5.377 24 0 18.623 0 12S5.377 0 12 0s12 5.377 12 12c0 3.583-1.574 6.801-4.067 9.001L9.219 7.2H7.2v9.596h1.615V9.251l9.85 12.727Zm-3.332-8.533 1.6 2.061V7.2h-1.6v6.245Z" fill="#e6edf3"/></g><text x="333.0" y="189.5" font-size="13" fill="#e6edf3">Next.js</text><g clip-path="url(#clip14)"><rect y="170.0" width="10" height="30" fill="#ffffff" opacity="0"><animate attributeName="x" from="274.0" to="425.6" dur="0.6s" begin="0.55s" fill="freeze"/><animate attributeName="opacity" values="0;0.45;0" keyTimes="0;0.5;1" dur="0.6s" begin="0.55s" fill="freeze"/></rect></g>
<clipPath id="clip15"><rect x="411.6" y="170.0" width="88.0" height="30" rx="15.0"/></clipPath><rect x="411.6" y="170.0" width="88.0" height="30" rx="15.0" fill="#ffffff" fill-opacity="0.06" stroke="#39d353" stroke-opacity="0.35" filter="url(#chipShadow)"/><ellipse cx="455.6" cy="185.0" rx="44.0" ry="15.0" fill="url(#glow-39d353)" clip-path="url(#clip15)"/><rect x="411.6" y="170.0" width="88.0" height="16.5" fill="url(#glossGrad)" clip-path="url(#clip15)"/><line x1="426.6" y1="171.5" x2="484.6" y2="171.5" stroke="#ffffff" stroke-opacity="0.22" stroke-width="1" stroke-linecap="round"/><g transform="translate(425.6,178.0) scale(0.5833)"><path d="M14.23 12.004a2.236 2.236 0 0 1-2.235 2.236 2.236 2.236 0 0 1-2.236-2.236 2.236 2.236 0 0 1 2.235-2.236 2.236 2.236 0 0 1 2.236 2.236zm2.648-10.69c-1.346 0-3.107.96-4.888 2.622-1.78-1.653-3.542-2.602-4.887-2.602-.41 0-.783.093-1.106.278-1.375.793-1.683 3.264-.973 6.365C1.98 8.917 0 10.42 0 12.004c0 1.59 1.99 3.097 5.043 4.03-.704 3.113-.39 5.588.988 6.38.32.187.69.275 1.102.275 1.345 0 3.107-.96 4.888-2.624 1.78 1.654 3.542 2.603 4.887 2.603.41 0 .783-.09 1.106-.275 1.374-.792 1.683-3.263.973-6.365C22.02 15.096 24 13.59 24 12.004c0-1.59-1.99-3.097-5.043-4.032.704-3.11.39-5.587-.988-6.38-.318-.184-.688-.277-1.092-.278zm-.005 1.09v.006c.225 0 .406.044.558.127.666.382.955 1.835.73 3.704-.054.46-.142.945-.25 1.44-.96-.236-2.006-.417-3.107-.534-.66-.905-1.345-1.727-2.035-2.447 1.592-1.48 3.087-2.292 4.105-2.295zm-9.77.02c1.012 0 2.514.808 4.11 2.28-.686.72-1.37 1.537-2.02 2.442-1.107.117-2.154.298-3.113.538-.112-.49-.195-.964-.254-1.42-.23-1.868.054-3.32.714-3.707.19-.09.4-.127.563-.132zm4.882 3.05c.455.468.91.992 1.36 1.564-.44-.02-.89-.034-1.345-.034-.46 0-.915.01-1.36.034.44-.572.895-1.096 1.345-1.565zM12 8.1c.74 0 1.477.034 2.202.093.406.582.802 1.203 1.183 1.86.372.64.71 1.29 1.018 1.946-.308.655-.646 1.31-1.013 1.95-.38.66-.773 1.288-1.18 1.87-.728.063-1.466.098-2.21.098-.74 0-1.477-.035-2.202-.093-.406-.582-.802-1.204-1.183-1.86-.372-.64-.71-1.29-1.018-1.946.303-.657.646-1.313 1.013-1.954.38-.66.773-1.286 1.18-1.868.728-.064 1.466-.098 2.21-.098zm-3.635.254c-.24.377-.48.763-.704 1.16-.225.39-.435.782-.635 1.174-.265-.656-.49-1.31-.676-1.947.64-.15 1.315-.283 2.015-.386zm7.26 0c.695.103 1.365.23 2.006.387-.18.632-.405 1.282-.66 1.933-.2-.39-.41-.783-.64-1.174-.225-.392-.465-.774-.705-1.146zm3.063.675c.484.15.944.317 1.375.498 1.732.74 2.852 1.708 2.852 2.476-.005.768-1.125 1.74-2.857 2.475-.42.18-.88.342-1.355.493-.28-.958-.646-1.956-1.1-2.98.45-1.017.81-2.01 1.085-2.964zm-13.395.004c.278.96.645 1.957 1.1 2.98-.45 1.017-.812 2.01-1.086 2.964-.484-.15-.944-.318-1.37-.5-1.732-.737-2.852-1.706-2.852-2.474 0-.768 1.12-1.742 2.852-2.476.42-.18.88-.342 1.356-.494zm11.678 4.28c.265.657.49 1.312.676 1.948-.64.157-1.316.29-2.016.39.24-.375.48-.762.705-1.158.225-.39.435-.788.636-1.18zm-9.945.02c.2.392.41.783.64 1.175.23.39.465.772.705 1.143-.695-.102-1.365-.23-2.006-.386.18-.63.406-1.282.66-1.933zM17.92 16.32c.112.493.2.968.254 1.423.23 1.868-.054 3.32-.714 3.708-.147.09-.338.128-.563.128-1.012 0-2.514-.807-4.11-2.28.686-.72 1.37-1.536 2.02-2.44 1.107-.118 2.154-.3 3.113-.54zm-11.83.01c.96.234 2.006.415 3.107.532.66.905 1.345 1.727 2.035 2.446-1.595 1.483-3.092 2.295-4.11 2.295-.22-.005-.406-.05-.553-.132-.666-.38-.955-1.834-.73-3.703.054-.46.142-.944.25-1.438zm4.56.64c.44.02.89.034 1.345.034.46 0 .915-.01 1.36-.034-.44.572-.895 1.095-1.345 1.565-.455-.47-.91-.993-1.36-1.565z" fill="#e6edf3"/></g><text x="446.6" y="189.5" font-size="13" fill="#e6edf3">React</text><g clip-path="url(#clip15)"><rect y="170.0" width="10" height="30" fill="#ffffff" opacity="0"><animate attributeName="x" from="387.6" to="523.6" dur="0.6s" begin="0.68s" fill="freeze"/><animate attributeName="opacity" values="0;0.45;0" keyTimes="0;0.5;1" dur="0.6s" begin="0.68s" fill="freeze"/></rect></g>
<clipPath id="clip16"><rect x="509.6" y="170.0" width="103.6" height="30" rx="15.0"/></clipPath><rect x="509.6" y="170.0" width="103.6" height="30" rx="15.0" fill="#ffffff" fill-opacity="0.06" stroke="#39d353" stroke-opacity="0.35" filter="url(#chipShadow)"/><ellipse cx="561.4" cy="185.0" rx="51.8" ry="15.0" fill="url(#glow-39d353)" clip-path="url(#clip16)"/><rect x="509.6" y="170.0" width="103.6" height="16.5" fill="url(#glossGrad)" clip-path="url(#clip16)"/><line x1="524.6" y1="171.5" x2="598.2" y2="171.5" stroke="#ffffff" stroke-opacity="0.22" stroke-width="1" stroke-linecap="round"/><g transform="translate(523.6,178.0) scale(0.5833)"><path d="M11.998,24c-0.321,0-0.641-0.084-0.922-0.247l-2.936-1.737c-0.438-0.245-0.224-0.332-0.08-0.383 c0.585-0.203,0.703-0.25,1.328-0.604c0.065-0.037,0.151-0.023,0.218,0.017l2.256,1.339c0.082,0.045,0.197,0.045,0.272,0l8.795-5.076 c0.082-0.047,0.134-0.141,0.134-0.238V6.921c0-0.099-0.053-0.192-0.137-0.242l-8.791-5.072c-0.081-0.047-0.189-0.047-0.271,0 L3.075,6.68C2.99,6.729,2.936,6.825,2.936,6.921v10.15c0,0.097,0.054,0.189,0.139,0.235l2.409,1.392 c1.307,0.654,2.108-0.116,2.108-0.89V7.787c0-0.142,0.114-0.253,0.256-0.253h1.115c0.139,0,0.255,0.112,0.255,0.253v10.021 c0,1.745-0.95,2.745-2.604,2.745c-0.508,0-0.909,0-2.026-0.551L2.28,18.675c-0.57-0.329-0.922-0.945-0.922-1.604V6.921 c0-0.659,0.353-1.275,0.922-1.603l8.795-5.082c0.557-0.315,1.296-0.315,1.848,0l8.794,5.082c0.57,0.329,0.924,0.944,0.924,1.603 v10.15c0,0.659-0.354,1.273-0.924,1.604l-8.794,5.078C12.643,23.916,12.324,24,11.998,24z M19.099,13.993 c0-1.9-1.284-2.406-3.987-2.763c-2.731-0.361-3.009-0.548-3.009-1.187c0-0.528,0.235-1.233,2.258-1.233 c1.807,0,2.473,0.389,2.747,1.607c0.024,0.115,0.129,0.199,0.247,0.199h1.141c0.071,0,0.138-0.031,0.186-0.081 c0.048-0.054,0.074-0.123,0.067-0.196c-0.177-2.098-1.571-3.076-4.388-3.076c-2.508,0-4.004,1.058-4.004,2.833 c0,1.925,1.488,2.457,3.895,2.695c2.88,0.282,3.103,0.703,3.103,1.269c0,0.983-0.789,1.402-2.642,1.402 c-2.327,0-2.839-0.584-3.011-1.742c-0.02-0.124-0.126-0.215-0.253-0.215h-1.137c-0.141,0-0.254,0.112-0.254,0.253 c0,1.482,0.806,3.248,4.655,3.248C17.501,17.007,19.099,15.91,19.099,13.993z" fill="#e6edf3"/></g><text x="544.6" y="189.5" font-size="13" fill="#e6edf3">Node.js</text><g clip-path="url(#clip16)"><rect y="170.0" width="10" height="30" fill="#ffffff" opacity="0"><animate attributeName="x" from="485.6" to="637.2" dur="0.6s" begin="0.79s" fill="freeze"/><animate attributeName="opacity" values="0;0.45;0" keyTimes="0;0.5;1" dur="0.6s" begin="0.79s" fill="freeze"/></rect></g>
<clipPath id="clip17"><rect x="623.2" y="170.0" width="88.0" height="30" rx="15.0"/></clipPath><rect x="623.2" y="170.0" width="88.0" height="30" rx="15.0" fill="#ffffff" fill-opacity="0.06" stroke="#39d353" stroke-opacity="0.35" filter="url(#chipShadow)"/><ellipse cx="667.2" cy="185.0" rx="44.0" ry="15.0" fill="url(#glow-39d353)" clip-path="url(#clip17)"/><rect x="623.2" y="170.0" width="88.0" height="16.5" fill="url(#glossGrad)" clip-path="url(#clip17)"/><line x1="638.2" y1="171.5" x2="696.2" y2="171.5" stroke="#ffffff" stroke-opacity="0.22" stroke-width="1" stroke-linecap="round"/><g transform="translate(637.2,178.0) scale(0.5833)"><path d="M10.773 2.878c-.013 1.434.322 4.624.445 5.734l-8.558 3.83c-.56-.959-.98-2.304-1.237-3.38l-.06.027c-.205.09-.406.053-.494-.088l-.011-.018-.82-1.506c-.058-.105-.05-.252.024-.392a.78.78 0 0 1 .358-.331l9.824-4.207c.146-.064.299-.063.4.004.106.062.127.128.13.327Zm.68 7c.523 1.97.675 2.412.832 2.818l-7.263 3.7a19.35 19.35 0 0 1-1.81-2.83l8.24-3.689Zm12.432 8.786h.003c.283.402-.047.657-.153.698l-.947.37c.037.125.035.319-.217.414l-.736.287c-.229.09-.398-.059-.42-.2l-.025-.125c-4.427 1.784-7.94 1.685-10.696.647-1.981-.745-3.576-1.983-4.846-3.379l6.948-3.54c.721 1.431 1.586 2.454 2.509 3.178 2.086 1.638 4.415 1.712 5.793 1.563l-.047-.233c-.015-.077.007-.135.086-.165l.734-.288a.302.302 0 0 1 .342.086l.748-.288a.306.306 0 0 1 .341.086l.583.89Z" fill="#e6edf3"/></g><text x="658.2" y="189.5" font-size="13" fill="#e6edf3">Flask</text><g clip-path="url(#clip17)"><rect y="170.0" width="10" height="30" fill="#ffffff" opacity="0"><animate attributeName="x" from="599.2" to="735.2" dur="0.6s" begin="0.92s" fill="freeze"/><animate attributeName="opacity" values="0;0.45;0" keyTimes="0;0.5;1" dur="0.6s" begin="0.92s" fill="freeze"/></rect></g>
<clipPath id="clip18"><rect x="721.2" y="170.0" width="103.6" height="30" rx="15.0"/></clipPath><rect x="721.2" y="170.0" width="103.6" height="30" rx="15.0" fill="#ffffff" fill-opacity="0.06" stroke="#39d353" stroke-opacity="0.35" filter="url(#chipShadow)"/><ellipse cx="773.0" cy="185.0" rx="51.8" ry="15.0" fill="url(#glow-39d353)" clip-path="url(#clip18)"/><rect x="721.2" y="170.0" width="103.6" height="16.5" fill="url(#glossGrad)" clip-path="url(#clip18)"/><line x1="736.2" y1="171.5" x2="809.8" y2="171.5" stroke="#ffffff" stroke-opacity="0.22" stroke-width="1" stroke-linecap="round"/><g transform="translate(735.2,178.0) scale(0.5833)"><path d="M12 .0387C5.3729.0384.0003 5.3931 0 11.9988c-.001 6.6066 5.372 11.9628 12 11.9625 6.628.0003 12.001-5.3559 12-11.9625-.0003-6.6057-5.3729-11.9604-12-11.96m-.829 5.4153h7.55l-7.5805 5.3284h5.1828L5.279 18.5436q2.9466-6.5444 5.892-13.0896" fill="#e6edf3"/></g><text x="756.2" y="189.5" font-size="13" fill="#e6edf3">FastAPI</text><g clip-path="url(#clip18)"><rect y="170.0" width="10" height="30" fill="#ffffff" opacity="0"><animate attributeName="x" from="697.2" to="848.8" dur="0.6s" begin="1.04s" fill="freeze"/><animate attributeName="opacity" values="0;0.45;0" keyTimes="0;0.5;1" dur="0.6s" begin="1.04s" fill="freeze"/></rect></g>
<clipPath id="clip19"><rect x="24.0" y="212.0" width="142.6" height="30" rx="15.0"/></clipPath><rect x="24.0" y="212.0" width="142.6" height="30" rx="15.0" fill="#ffffff" fill-opacity="0.06" stroke="#39d353" stroke-opacity="0.35" filter="url(#chipShadow)"/><ellipse cx="95.3" cy="227.0" rx="71.3" ry="15.0" fill="url(#glow-39d353)" clip-path="url(#clip19)"/><rect x="24.0" y="212.0" width="142.6" height="16.5" fill="url(#glossGrad)" clip-path="url(#clip19)"/><line x1="39.0" y1="213.5" x2="151.6" y2="213.5" stroke="#ffffff" stroke-opacity="0.22" stroke-width="1" stroke-linecap="round"/><g transform="translate(38.0,220.0) scale(0.5833)"><path d="M12.001,4.8c-3.2,0-5.2,1.6-6,4.8c1.2-1.6,2.6-2.2,4.2-1.8c0.913,0.228,1.565,0.89,2.288,1.624 C13.666,10.618,15.027,12,18.001,12c3.2,0,5.2-1.6,6-4.8c-1.2,1.6-2.6,2.2-4.2,1.8c-0.913-0.228-1.565-0.89-2.288-1.624 C16.337,6.182,14.976,4.8,12.001,4.8z M6.001,12c-3.2,0-5.2,1.6-6,4.8c1.2-1.6,2.6-2.2,4.2-1.8c0.913,0.228,1.565,0.89,2.288,1.624 c1.177,1.194,2.538,2.576,5.512,2.576c3.2,0,5.2-1.6,6-4.8c-1.2,1.6-2.6,2.2-4.2,1.8c-0.913-0.228-1.565-0.89-2.288-1.624 C10.337,13.382,8.976,12,6.001,12z" fill="#e6edf3"/></g><text x="59.0" y="231.5" font-size="13" fill="#e6edf3">Tailwind CSS</text><g clip-path="url(#clip19)"><rect y="212.0" width="10" height="30" fill="#ffffff" opacity="0"><animate attributeName="x" from="0.0" to="190.6" dur="0.6s" begin="0.23s" fill="freeze"/><animate attributeName="opacity" values="0;0.45;0" keyTimes="0;0.5;1" dur="0.6s" begin="0.23s" fill="freeze"/></rect></g>
<clipPath id="clip20"><rect x="176.6" y="212.0" width="119.2" height="30" rx="15.0"/></clipPath><rect x="176.6" y="212.0" width="119.2" height="30" rx="15.0" fill="#ffffff" fill-opacity="0.06" stroke="#39d353" stroke-opacity="0.35" filter="url(#chipShadow)"/><ellipse cx="236.2" cy="227.0" rx="59.6" ry="15.0" fill="url(#glow-39d353)" clip-path="url(#clip20)"/><rect x="176.6" y="212.0" width="119.2" height="16.5" fill="url(#glossGrad)" clip-path="url(#clip20)"/><line x1="191.6" y1="213.5" x2="280.8" y2="213.5" stroke="#ffffff" stroke-opacity="0.22" stroke-width="1" stroke-linecap="round"/><circle cx="197.6" cy="227.0" r="7.0" fill="#39d353" fill-opacity="0.22" stroke="#39d353" stroke-opacity="0.6"/><text x="197.6" y="229.5" font-size="7" font-weight="700" fill="#39d353" text-anchor="middle">RA</text><text x="211.6" y="231.5" font-size="13" fill="#e6edf3">REST APIs</text><g clip-path="url(#clip20)"><rect y="212.0" width="10" height="30" fill="#ffffff" opacity="0"><animate attributeName="x" from="152.6" to="319.8" dur="0.6s" begin="0.41s" fill="freeze"/><animate attributeName="opacity" values="0;0.45;0" keyTimes="0;0.5;1" dur="0.6s" begin="0.41s" fill="freeze"/></rect></g>
<clipPath id="clip21"><rect x="305.8" y="212.0" width="88.0" height="30" rx="15.0"/></clipPath><rect x="305.8" y="212.0" width="88.0" height="30" rx="15.0" fill="#ffffff" fill-opacity="0.06" stroke="#39d353" stroke-opacity="0.35" filter="url(#chipShadow)"/><ellipse cx="349.8" cy="227.0" rx="44.0" ry="15.0" fill="url(#glow-39d353)" clip-path="url(#clip21)"/><rect x="305.8" y="212.0" width="88.0" height="16.5" fill="url(#glossGrad)" clip-path="url(#clip21)"/><line x1="320.8" y1="213.5" x2="378.8" y2="213.5" stroke="#ffffff" stroke-opacity="0.22" stroke-width="1" stroke-linecap="round"/><g transform="translate(319.8,220.0) scale(0.5833)"><path d="M1.5 0h21l-1.91 21.563L11.977 24l-8.564-2.438L1.5 0zm7.031 9.75l-.232-2.718 10.059.003.23-2.622L5.412 4.41l.698 8.01h9.126l-.326 3.426-2.91.804-2.955-.81-.188-2.11H6.248l.33 4.171L12 19.351l5.379-1.443.744-8.157H8.531z" fill="#e6edf3"/></g><text x="340.8" y="231.5" font-size="13" fill="#e6edf3">HTML5</text><g clip-path="url(#clip21)"><rect y="212.0" width="10" height="30" fill="#ffffff" opacity="0"><animate attributeName="x" from="281.8" to="417.8" dur="0.6s" begin="0.56s" fill="freeze"/><animate attributeName="opacity" values="0;0.45;0" keyTimes="0;0.5;1" dur="0.6s" begin="0.56s" fill="freeze"/></rect></g>
<clipPath id="clip22"><rect x="403.8" y="212.0" width="80.2" height="30" rx="15.0"/></clipPath><rect x="403.8" y="212.0" width="80.2" height="30" rx="15.0" fill="#ffffff" fill-opacity="0.06" stroke="#39d353" stroke-opacity="0.35" filter="url(#chipShadow)"/><ellipse cx="443.9" cy="227.0" rx="40.1" ry="15.0" fill="url(#glow-39d353)" clip-path="url(#clip22)"/><rect x="403.8" y="212.0" width="80.2" height="16.5" fill="url(#glossGrad)" clip-path="url(#clip22)"/><line x1="418.8" y1="213.5" x2="469.0" y2="213.5" stroke="#ffffff" stroke-opacity="0.22" stroke-width="1" stroke-linecap="round"/><g transform="translate(417.8,220.0) scale(0.5833)"><path d="M1.5 0h21l-1.91 21.563L11.977 24l-8.565-2.438L1.5 0zm17.09 4.413L5.41 4.41l.213 2.622 10.125.002-.255 2.716h-6.64l.24 2.573h6.182l-.366 3.523-2.91.804-2.956-.81-.188-2.11h-2.61l.29 3.855L12 19.288l5.373-1.53L18.59 4.414z" fill="#e6edf3"/></g><text x="438.8" y="231.5" font-size="13" fill="#e6edf3">CSS3</text><g clip-path="url(#clip22)"><rect y="212.0" width="10" height="30" fill="#ffffff" opacity="0"><animate attributeName="x" from="379.8" to="508.0" dur="0.6s" begin="0.67s" fill="freeze"/><animate attributeName="opacity" values="0;0.45;0" keyTimes="0;0.5;1" dur="0.6s" begin="0.67s" fill="freeze"/></rect></g>
<text x="24" y="278.0" font-size="14" font-weight="700" fill="#DC0000">Web3 / Blockchain</text>
<clipPath id="clip23"><rect x="24.0" y="290.0" width="111.4" height="30" rx="15.0"/></clipPath><rect x="24.0" y="290.0" width="111.4" height="30" rx="15.0" fill="#ffffff" fill-opacity="0.06" stroke="#DC0000" stroke-opacity="0.35" filter="url(#chipShadow)"/><ellipse cx="79.7" cy="305.0" rx="55.7" ry="15.0" fill="url(#glow-DC0000)" clip-path="url(#clip23)"/><rect x="24.0" y="290.0" width="111.4" height="16.5" fill="url(#glossGrad)" clip-path="url(#clip23)"/><line x1="39.0" y1="291.5" x2="120.4" y2="291.5" stroke="#ffffff" stroke-opacity="0.22" stroke-width="1" stroke-linecap="round"/><g transform="translate(38.0,298.0) scale(0.5833)"><path d="M4.409 6.608L7.981.255l3.572 6.353H4.409zM8.411 0l3.569 6.348L15.552 0H8.411zm4.036 17.392l3.572 6.354 3.575-6.354h-7.147zm-.608-10.284h-7.43l3.715 6.605 3.715-6.605zm.428-.25h7.428L15.982.255l-3.715 6.603zM15.589 24l-3.569-6.349L8.448 24h7.141zm-3.856-6.858H4.306l3.712 6.603 3.715-6.603zm.428-.25h7.433l-3.718-6.605-3.715 6.605z" fill="#e6edf3"/></g><text x="59.0" y="309.5" font-size="13" fill="#e6edf3">Solidity</text><g clip-path="url(#clip23)"><rect y="290.0" width="10" height="30" fill="#ffffff" opacity="0"><animate attributeName="x" from="0.0" to="159.4" dur="0.6s" begin="0.23s" fill="freeze"/><animate attributeName="opacity" values="0;0.45;0" keyTimes="0;0.5;1" dur="0.6s" begin="0.23s" fill="freeze"/></rect></g>
<clipPath id="clip24"><rect x="145.4" y="290.0" width="111.4" height="30" rx="15.0"/></clipPath><rect x="145.4" y="290.0" width="111.4" height="30" rx="15.0" fill="#ffffff" fill-opacity="0.06" stroke="#DC0000" stroke-opacity="0.35" filter="url(#chipShadow)"/><ellipse cx="201.1" cy="305.0" rx="55.7" ry="15.0" fill="url(#glow-DC0000)" clip-path="url(#clip24)"/><rect x="145.4" y="290.0" width="111.4" height="16.5" fill="url(#glossGrad)" clip-path="url(#clip24)"/><line x1="160.4" y1="291.5" x2="241.8" y2="291.5" stroke="#ffffff" stroke-opacity="0.22" stroke-width="1" stroke-linecap="round"/><g transform="translate(159.4,298.0) scale(0.5833)"><path d="M11.944 17.97L4.58 13.62 11.943 24l7.37-10.38-7.372 4.35h.003zM12.056 0L4.69 12.223l7.365 4.354 7.365-4.35L12.056 0z" fill="#e6edf3"/></g><text x="180.4" y="309.5" font-size="13" fill="#e6edf3">Ethereum</text><g clip-path="url(#clip24)"><rect y="290.0" width="10" height="30" fill="#ffffff" opacity="0"><animate attributeName="x" from="121.4" to="280.8" dur="0.6s" begin="0.37s" fill="freeze"/><animate attributeName="opacity" values="0;0.45;0" keyTimes="0;0.5;1" dur="0.6s" begin="0.37s" fill="freeze"/></rect></g>
<clipPath id="clip25"><rect x="266.8" y="290.0" width="103.6" height="30" rx="15.0"/></clipPath><rect x="266.8" y="290.0" width="103.6" height="30" rx="15.0" fill="#ffffff" fill-opacity="0.06" stroke="#DC0000" stroke-opacity="0.35" filter="url(#chipShadow)"/><ellipse cx="318.6" cy="305.0" rx="51.8" ry="15.0" fill="url(#glow-DC0000)" clip-path="url(#clip25)"/><rect x="266.8" y="290.0" width="103.6" height="16.5" fill="url(#glossGrad)" clip-path="url(#clip25)"/><line x1="281.8" y1="291.5" x2="355.4" y2="291.5" stroke="#ffffff" stroke-opacity="0.22" stroke-width="1" stroke-linecap="round"/><g transform="translate(280.8,298.0) scale(0.5833)"><path d="M.889.775S0 1.29 0 2.315V7.44s0 3.079 2.666 4.618c.817.472 1.384.508 1.777.334.394.628.96 1.246 1.778 1.718 2.666 1.54 2.668-1.539 2.668-1.539V7.447c0-1.027.888-1.539.888-1.539l3.557-2.054s.89-.514 1.777 0c.89.513 0 1.027 0 1.027L11.56 6.934l1.775 1.025 3.559-2.055c.052-.03.912-.495 1.773.002.89.514 0 1.026 0 1.026l-3.555 2.054s-.888.514-.888 1.54v5.124s0 1.028-.889.514c-.89-.513-.89-1.539-.89-1.539l-1.778-1.027s.001 3.08 2.668 4.619c2.667 1.539 2.666-1.54 2.666-1.54v-5.126c0-1.026.889-1.537.889-1.537l4.445-2.569s1.776-1.025-.889-2.564c-.819-.474-1.552-.704-2.177-.797-.164-.357-.565-.776-1.377-1.24-2.667-1.523-5.332-.016-5.332-.016L8.004 4.881s-.89.514-.89 1.539v5.125s0 1.027-.89.514c-.889-.514-.89-1.54-.89-1.54V5.396c0-.064.003-.127.01-.188.097-.902.879-1.353.879-1.353L4.445 2.828l-.004.002c-.052.03-.884.544-.884 1.537v5.125s-.002 1.027-.891.514c-.89-.514-.889-1.54-.889-1.54V3.343c0-1.026.889-1.54.889-1.54L.889.776zm9.78 8.735v2.053l1.778 1.025v-2.053L10.67 9.51zm8.442 2.183c-.666.005-1.332.389-1.332 1.909 0 3.039 2.666 4.619 2.666 4.619l.889.513s.89.514.89 1.54-.89.513-.89.513l-3.555-2.053v2.053l3.555 2.053S24 24.379 24 21.3c0-3.077-1.777-4.105-1.777-4.105l-1.778-1.025s-.888-.514-.888-1.54c0-1.028.888-.515.888-.515L24 16.168v-2.053l-3.555-2.05s-.667-.376-1.334-.372Z" fill="#e6edf3"/></g><text x="301.8" y="309.5" font-size="13" fill="#e6edf3">Web3.js</text><g clip-path="url(#clip25)"><rect y="290.0" width="10" height="30" fill="#ffffff" opacity="0"><animate attributeName="x" from="242.8" to="394.4" dur="0.6s" begin="0.51s" fill="freeze"/><animate attributeName="opacity" values="0;0.45;0" keyTimes="0;0.5;1" dur="0.6s" begin="0.51s" fill="freeze"/></rect></g>
<clipPath id="clip26"><rect x="380.4" y="290.0" width="119.2" height="30" rx="15.0"/></clipPath><rect x="380.4" y="290.0" width="119.2" height="30" rx="15.0" fill="#ffffff" fill-opacity="0.06" stroke="#DC0000" stroke-opacity="0.35" filter="url(#chipShadow)"/><ellipse cx="440.0" cy="305.0" rx="59.6" ry="15.0" fill="url(#glow-DC0000)" clip-path="url(#clip26)"/><rect x="380.4" y="290.0" width="119.2" height="16.5" fill="url(#glossGrad)" clip-path="url(#clip26)"/><line x1="395.4" y1="291.5" x2="484.6" y2="291.5" stroke="#ffffff" stroke-opacity="0.22" stroke-width="1" stroke-linecap="round"/><g transform="translate(394.4,298.0) scale(0.5833)"><path d="M24 17.443c-12.547 1.64-21.503 3.61-21.636-4.474 0 0 .274-3.133 4.116-3.33 0 0 .13-2.782 3.065-3.097 1.578-.171 3.37 1.454 3.565 3.165 0 0 3.883-.719 4.051 3.067.059 1.32-.238 3.563-3.983 3.465 0 0-2.167-.294-2.461-3.644-.61 6.485 8.767 6.108 8.902.218.06-2.547-1.572-5.167-5.246-4.676-2.014-5.066-7.375-4.775-9.37-.076-2.854 0-5.035 2.196-5.003 5.064.11 9.23 12.954 6.447 24 4.318Z" fill="#e6edf3"/></g><text x="415.4" y="309.5" font-size="13" fill="#e6edf3">Ethers.js</text><g clip-path="url(#clip26)"><rect y="290.0" width="10" height="30" fill="#ffffff" opacity="0"><animate attributeName="x" from="356.4" to="523.6" dur="0.6s" begin="0.64s" fill="freeze"/><animate attributeName="opacity" values="0;0.45;0" keyTimes="0;0.5;1" dur="0.6s" begin="0.64s" fill="freeze"/></rect></g>
<clipPath id="clip27"><rect x="509.6" y="290.0" width="80.2" height="30" rx="15.0"/></clipPath><rect x="509.6" y="290.0" width="80.2" height="30" rx="15.0" fill="#ffffff" fill-opacity="0.06" stroke="#DC0000" stroke-opacity="0.35" filter="url(#chipShadow)"/><ellipse cx="549.7" cy="305.0" rx="40.1" ry="15.0" fill="url(#glow-DC0000)" clip-path="url(#clip27)"/><rect x="509.6" y="290.0" width="80.2" height="16.5" fill="url(#glossGrad)" clip-path="url(#clip27)"/><line x1="524.6" y1="291.5" x2="574.8" y2="291.5" stroke="#ffffff" stroke-opacity="0.22" stroke-width="1" stroke-linecap="round"/><g transform="translate(523.6,298.0) scale(0.5833)"><path d="M12 0L1.608 6v12L12 24l10.392-6V6zm-1.073 1.445h.001a1.8 1.8 0 002.138 0l7.534 4.35a1.794 1.794 0 000 .403l-7.535 4.35a1.8 1.8 0 00-2.137 0l-7.536-4.35a1.795 1.795 0 000-.402zM21.324 7.4c.109.08.226.147.349.201v8.7a1.8 1.8 0 00-1.069 1.852l-7.535 4.35a1.8 1.8 0 00-.349-.2l-.009-8.653a1.8 1.8 0 001.07-1.851zm-18.648.048l7.535 4.35a1.8 1.8 0 001.069 1.852v8.7c-.124.054-.24.122-.349.202l-7.535-4.35a1.8 1.8 0 00-1.069-1.852v-8.7c.124-.054.24-.122.35-.202z" fill="#e6edf3"/></g><text x="544.6" y="309.5" font-size="13" fill="#e6edf3">IPFS</text><g clip-path="url(#clip27)"><rect y="290.0" width="10" height="30" fill="#ffffff" opacity="0"><animate attributeName="x" from="485.6" to="613.8" dur="0.6s" begin="0.79s" fill="freeze"/><animate attributeName="opacity" values="0;0.45;0" keyTimes="0;0.5;1" dur="0.6s" begin="0.79s" fill="freeze"/></rect></g>
<clipPath id="clip28"><rect x="599.8" y="290.0" width="111.4" height="30" rx="15.0"/></clipPath><rect x="599.8" y="290.0" width="111.4" height="30" rx="15.0" fill="#ffffff" fill-opacity="0.06" stroke="#DC0000" stroke-opacity="0.35" filter="url(#chipShadow)"/><ellipse cx="655.5" cy="305.0" rx="55.7" ry="15.0" fill="url(#glow-DC0000)" clip-path="url(#clip28)"/><rect x="599.8" y="290.0" width="111.4" height="16.5" fill="url(#glossGrad)" clip-path="url(#clip28)"/><line x1="614.8" y1="291.5" x2="696.2" y2="291.5" stroke="#ffffff" stroke-opacity="0.22" stroke-width="1" stroke-linecap="round"/><circle cx="620.8" cy="305.0" r="7.0" fill="#DC0000" fill-opacity="0.22" stroke="#DC0000" stroke-opacity="0.6"/><text x="620.8" y="307.5" font-size="7" font-weight="700" fill="#DC0000" text-anchor="middle">M</text><text x="634.8" y="309.5" font-size="13" fill="#e6edf3">MetaMask</text><g clip-path="url(#clip28)"><rect y="290.0" width="10" height="30" fill="#ffffff" opacity="0"><animate attributeName="x" from="575.8" to="735.2" dur="0.6s" begin="0.90s" fill="freeze"/><animate attributeName="opacity" values="0;0.45;0" keyTimes="0;0.5;1" dur="0.6s" begin="0.90s" fill="freeze"/></rect></g>
<clipPath id="clip29"><rect x="721.2" y="290.0" width="88.0" height="30" rx="15.0"/></clipPath><rect x="721.2" y="290.0" width="88.0" height="30" rx="15.0" fill="#ffffff" fill-opacity="0.06" stroke="#DC0000" stroke-opacity="0.35" filter="url(#chipShadow)"/><ellipse cx="765.2" cy="305.0" rx="44.0" ry="15.0" fill="url(#glow-DC0000)" clip-path="url(#clip29)"/><rect x="721.2" y="290.0" width="88.0" height="16.5" fill="url(#glossGrad)" clip-path="url(#clip29)"/><line x1="736.2" y1="291.5" x2="794.2" y2="291.5" stroke="#ffffff" stroke-opacity="0.22" stroke-width="1" stroke-linecap="round"/><circle cx="742.2" cy="305.0" r="7.0" fill="#DC0000" fill-opacity="0.22" stroke="#DC0000" stroke-opacity="0.6"/><text x="742.2" y="307.5" font-size="7" font-weight="700" fill="#DC0000" text-anchor="middle">M</text><text x="756.2" y="309.5" font-size="13" fill="#e6edf3">Monad</text><g clip-path="url(#clip29)"><rect y="290.0" width="10" height="30" fill="#ffffff" opacity="0"><animate attributeName="x" from="697.2" to="833.2" dur="0.6s" begin="1.04s" fill="freeze"/><animate attributeName="opacity" values="0;0.45;0" keyTimes="0;0.5;1" dur="0.6s" begin="1.04s" fill="freeze"/></rect></g>
<text x="24" y="356.0" font-size="14" font-weight="700" fill="#a371f7">Data / Infra</text>
<clipPath id="clip30"><rect x="24.0" y="368.0" width="111.4" height="30" rx="15.0"/></clipPath><rect x="24.0" y="368.0" width="111.4" height="30" rx="15.0" fill="#ffffff" fill-opacity="0.06" stroke="#a371f7" stroke-opacity="0.35" filter="url(#chipShadow)"/><ellipse cx="79.7" cy="383.0" rx="55.7" ry="15.0" fill="url(#glow-a371f7)" clip-path="url(#clip30)"/><rect x="24.0" y="368.0" width="111.4" height="16.5" fill="url(#glossGrad)" clip-path="url(#clip30)"/><line x1="39.0" y1="369.5" x2="120.4" y2="369.5" stroke="#ffffff" stroke-opacity="0.22" stroke-width="1" stroke-linecap="round"/><g transform="translate(38.0,376.0) scale(0.5833)"><path d="M11.9 1.036c-.015-.986-1.26-1.41-1.874-.637L.764 12.05C-.33 13.427.65 15.455 2.409 15.455h9.579l.113 7.51c.014.985 1.259 1.408 1.873.636l9.262-11.653c1.093-1.375.113-3.403-1.645-3.403h-9.642z" fill="#e6edf3"/></g><text x="59.0" y="387.5" font-size="13" fill="#e6edf3">Supabase</text><g clip-path="url(#clip30)"><rect y="368.0" width="10" height="30" fill="#ffffff" opacity="0"><animate attributeName="x" from="0.0" to="159.4" dur="0.6s" begin="0.23s" fill="freeze"/><animate attributeName="opacity" values="0;0.45;0" keyTimes="0;0.5;1" dur="0.6s" begin="0.23s" fill="freeze"/></rect></g>
<clipPath id="clip31"><rect x="145.4" y="368.0" width="103.6" height="30" rx="15.0"/></clipPath><rect x="145.4" y="368.0" width="103.6" height="30" rx="15.0" fill="#ffffff" fill-opacity="0.06" stroke="#a371f7" stroke-opacity="0.35" filter="url(#chipShadow)"/><ellipse cx="197.2" cy="383.0" rx="51.8" ry="15.0" fill="url(#glow-a371f7)" clip-path="url(#clip31)"/><rect x="145.4" y="368.0" width="103.6" height="16.5" fill="url(#glossGrad)" clip-path="url(#clip31)"/><line x1="160.4" y1="369.5" x2="234.0" y2="369.5" stroke="#ffffff" stroke-opacity="0.22" stroke-width="1" stroke-linecap="round"/><g transform="translate(159.4,376.0) scale(0.5833)"><path d="M17.193 9.555c-1.264-5.58-4.252-7.414-4.573-8.115-.28-.394-.53-.954-.735-1.44-.036.495-.055.685-.523 1.184-.723.566-4.438 3.682-4.74 10.02-.282 5.912 4.27 9.435 4.888 9.884l.07.05A73.49 73.49 0 0111.91 24h.481c.114-1.032.284-2.056.51-3.07.417-.296.604-.463.85-.693a11.342 11.342 0 003.639-8.464c.01-.814-.103-1.662-.197-2.218zm-5.336 8.195s0-8.291.275-8.29c.213 0 .49 10.695.49 10.695-.381-.045-.765-1.76-.765-2.405z" fill="#e6edf3"/></g><text x="180.4" y="387.5" font-size="13" fill="#e6edf3">MongoDB</text><g clip-path="url(#clip31)"><rect y="368.0" width="10" height="30" fill="#ffffff" opacity="0"><animate attributeName="x" from="121.4" to="273.0" dur="0.6s" begin="0.37s" fill="freeze"/><animate attributeName="opacity" values="0;0.45;0" keyTimes="0;0.5;1" dur="0.6s" begin="0.37s" fill="freeze"/></rect></g>
<clipPath id="clip32"><rect x="259.0" y="368.0" width="127.0" height="30" rx="15.0"/></clipPath><rect x="259.0" y="368.0" width="127.0" height="30" rx="15.0" fill="#ffffff" fill-opacity="0.06" stroke="#a371f7" stroke-opacity="0.35" filter="url(#chipShadow)"/><ellipse cx="322.5" cy="383.0" rx="63.5" ry="15.0" fill="url(#glow-a371f7)" clip-path="url(#clip32)"/><rect x="259.0" y="368.0" width="127.0" height="16.5" fill="url(#glossGrad)" clip-path="url(#clip32)"/><line x1="274.0" y1="369.5" x2="371.0" y2="369.5" stroke="#ffffff" stroke-opacity="0.22" stroke-width="1" stroke-linecap="round"/><g transform="translate(273.0,376.0) scale(0.5833)"><path d="M23.5594 14.7228a.5269.5269 0 0 0-.0563-.1191c-.139-.2632-.4768-.3418-1.0074-.2321-1.6533.3411-2.2935.1312-2.5256-.0191 1.342-2.0482 2.445-4.522 3.0411-6.8297.2714-1.0507.7982-3.5237.1222-4.7316a1.5641 1.5641 0 0 0-.1509-.235C21.6931.9086 19.8007.0248 17.5099.0005c-1.4947-.0158-2.7705.3461-3.1161.4794a9.449 9.449 0 0 0-.5159-.0816 8.044 8.044 0 0 0-1.3114-.1278c-1.1822-.0184-2.2038.2642-3.0498.8406-.8573-.3211-4.7888-1.645-7.2219.0788C.9359 2.1526.3086 3.8733.4302 6.3043c.0409.818.5069 3.334 1.2423 5.7436.4598 1.5065.9387 2.7019 1.4334 3.582.553.9942 1.1259 1.5933 1.7143 1.7895.4474.1491 1.1327.1441 1.8581-.7279.8012-.9635 1.5903-1.8258 1.9446-2.2069.4351.2355.9064.3625 1.39.3772a.0569.0569 0 0 0 .0004.0041 11.0312 11.0312 0 0 0-.2472.3054c-.3389.4302-.4094.5197-1.5002.7443-.3102.064-1.1344.2339-1.1464.8115-.0025.1224.0329.2309.0919.3268.2269.4231.9216.6097 1.015.6331 1.3345.3335 2.5044.092 3.3714-.6787-.017 2.231.0775 4.4174.3454 5.0874.2212.5529.7618 1.9045 2.4692 1.9043.2505 0 .5263-.0291.8296-.0941 1.7819-.3821 2.5557-1.1696 2.855-2.9059.1503-.8707.4016-2.8753.5388-4.1012.0169-.0703.0357-.1207.057-.1362.0007-.0005.0697-.0471.4272.0307a.3673.3673 0 0 0 .0443.0068l.2539.0223.0149.001c.8468.0384 1.9114-.1426 2.5312-.4308.6438-.2988 1.8057-1.0323 1.5951-1.6698zM2.371 11.8765c-.7435-2.4358-1.1779-4.8851-1.2123-5.5719-.1086-2.1714.4171-3.6829 1.5623-4.4927 1.8367-1.2986 4.8398-.5408 6.108-.13-.0032.0032-.0066.0061-.0098.0094-2.0238 2.044-1.9758 5.536-1.9708 5.7495-.0002.0823.0066.1989.0162.3593.0348.5873.0996 1.6804-.0735 2.9184-.1609 1.1504.1937 2.2764.9728 3.0892.0806.0841.1648.1631.2518.2374-.3468.3714-1.1004 1.1926-1.9025 2.1576-.5677.6825-.9597.5517-1.0886.5087-.3919-.1307-.813-.5871-1.2381-1.3223-.4796-.839-.9635-2.0317-1.4155-3.5126zm6.0072 5.0871c-.1711-.0428-.3271-.1132-.4322-.1772.0889-.0394.2374-.0902.4833-.1409 1.2833-.2641 1.4815-.4506 1.9143-1.0002.0992-.126.2116-.2687.3673-.4426a.3549.3549 0 0 0 .0737-.1298c.1708-.1513.2724-.1099.4369-.0417.156.0646.3078.26.3695.4752.0291.1016.0619.2945-.0452.4444-.9043 1.2658-2.2216 1.2494-3.1676 1.0128zm2.094-3.988-.0525.141c-.133.3566-.2567.6881-.3334 1.003-.6674-.0021-1.3168-.2872-1.8105-.8024-.6279-.6551-.9131-1.5664-.7825-2.5004.1828-1.3079.1153-2.4468.079-3.0586-.005-.0857-.0095-.1607-.0122-.2199.2957-.2621 1.6659-.9962 2.6429-.7724.4459.1022.7176.4057.8305.928.5846 2.7038.0774 3.8307-.3302 4.7363-.084.1866-.1633.3629-.2311.5454zm7.3637 4.5725c-.0169.1768-.0358.376-.0618.5959l-.146.4383a.3547.3547 0 0 0-.0182.1077c-.0059.4747-.054.6489-.115.8693-.0634.2292-.1353.4891-.1794 1.0575-.11 1.4143-.8782 2.2267-2.4172 2.5565-1.5155.3251-1.7843-.4968-2.0212-1.2217a6.5824 6.5824 0 0 0-.0769-.2266c-.2154-.5858-.1911-1.4119-.1574-2.5551.0165-.5612-.0249-1.9013-.3302-2.6462.0044-.2932.0106-.5909.019-.8918a.3529.3529 0 0 0-.0153-.1126 1.4927 1.4927 0 0 0-.0439-.208c-.1226-.4283-.4213-.7866-.7797-.9351-.1424-.059-.4038-.1672-.7178-.0869.067-.276.1831-.5875.309-.9249l.0529-.142c.0595-.16.134-.3257.213-.5012.4265-.9476 1.0106-2.2453.3766-5.1772-.2374-1.0981-1.0304-1.6343-2.2324-1.5098-.7207.0746-1.3799.3654-1.7088.5321a5.6716 5.6716 0 0 0-.1958.1041c.0918-1.1064.4386-3.1741 1.7357-4.4823a4.0306 4.0306 0 0 1 .3033-.276.3532.3532 0 0 0 .1447-.0644c.7524-.5706 1.6945-.8506 2.802-.8325.4091.0067.8017.0339 1.1742.081 1.939.3544 3.2439 1.4468 4.0359 2.3827.8143.9623 1.2552 1.9315 1.4312 2.4543-1.3232-.1346-2.2234.1268-2.6797.779-.9926 1.4189.543 4.1729 1.2811 5.4964.1353.2426.2522.4522.2889.5413.2403.5825.5515.9713.7787 1.2552.0696.087.1372.1714.1885.245-.4008.1155-1.1208.3825-1.0552 1.717-.0123.1563-.0423.4469-.0834.8148-.0461.2077-.0702.4603-.0994.7662zm.8905-1.6211c-.0405-.8316.2691-.9185.5967-1.0105a2.8566 2.8566 0 0 0 .135-.0406 1.202 1.202 0 0 0 .1342.103c.5703.3765 1.5823.4213 3.0068.1344-.2016.1769-.5189.3994-.9533.6011-.4098.1903-1.0957.333-1.7473.3636-.7197.0336-1.0859-.0807-1.1721-.151zm.5695-9.2712c-.0059.3508-.0542.6692-.1054 1.0017-.055.3576-.112.7274-.1264 1.1762-.0142.4368.0404.8909.0932 1.3301.1066.887.216 1.8003-.2075 2.7014a3.5272 3.5272 0 0 1-.1876-.3856c-.0527-.1276-.1669-.3326-.3251-.6162-.6156-1.1041-2.0574-3.6896-1.3193-4.7446.3795-.5427 1.3408-.5661 2.1781-.463zm.2284 7.0137a12.3762 12.3762 0 0 0-.0853-.1074l-.0355-.0444c.7262-1.1995.5842-2.3862.4578-3.4385-.0519-.4318-.1009-.8396-.0885-1.2226.0129-.4061.0666-.7543.1185-1.0911.0639-.415.1288-.8443.1109-1.3505.0134-.0531.0188-.1158.0118-.1902-.0457-.4855-.5999-1.938-1.7294-3.253-.6076-.7073-1.4896-1.4972-2.6889-2.0395.5251-.1066 1.2328-.2035 2.0244-.1859 2.0515.0456 3.6746.8135 4.8242 2.2824a.908.908 0 0 1 .0667.1002c.7231 1.3556-.2762 6.2751-2.9867 10.5405zm-8.8166-6.1162c-.025.1794-.3089.4225-.6211.4225a.5821.5821 0 0 1-.0809-.0056c-.1873-.026-.3765-.144-.5059-.3156-.0458-.0605-.1203-.178-.1055-.2844.0055-.0401.0261-.0985.0925-.1488.1182-.0894.3518-.1226.6096-.0867.3163.0441.6426.1938.6113.4186zm7.9305-.4114c.0111.0792-.049.201-.1531.3102-.0683.0717-.212.1961-.4079.2232a.5456.5456 0 0 1-.075.0052c-.2935 0-.5414-.2344-.5607-.3717-.024-.1765.2641-.3106.5611-.352.297-.0414.6111.0088.6356.1851z" fill="#e6edf3"/></g><text x="294.0" y="387.5" font-size="13" fill="#e6edf3">PostgreSQL</text><g clip-path="url(#clip32)"><rect y="368.0" width="10" height="30" fill="#ffffff" opacity="0"><animate attributeName="x" from="235.0" to="410.0" dur="0.6s" begin="0.50s" fill="freeze"/><animate attributeName="opacity" values="0;0.45;0" keyTimes="0;0.5;1" dur="0.6s" begin="0.50s" fill="freeze"/></rect></g>
<clipPath id="clip33"><rect x="396.0" y="368.0" width="111.4" height="30" rx="15.0"/></clipPath><rect x="396.0" y="368.0" width="111.4" height="30" rx="15.0" fill="#ffffff" fill-opacity="0.06" stroke="#a371f7" stroke-opacity="0.35" filter="url(#chipShadow)"/><ellipse cx="451.7" cy="383.0" rx="55.7" ry="15.0" fill="url(#glow-a371f7)" clip-path="url(#clip33)"/><rect x="396.0" y="368.0" width="111.4" height="16.5" fill="url(#glossGrad)" clip-path="url(#clip33)"/><line x1="411.0" y1="369.5" x2="492.4" y2="369.5" stroke="#ffffff" stroke-opacity="0.22" stroke-width="1" stroke-linecap="round"/><g transform="translate(410.0,376.0) scale(0.5833)"><path d="M19.455 8.369c-.538-.748-1.778-2.285-3.681-4.569-.826-.991-1.535-1.832-1.884-2.245a146 146 0 0 0-.488-.576l-.207-.245-.113-.133-.022-.032-.01-.005L12.57 0l-.609.488c-1.555 1.246-2.828 2.851-3.681 4.64-.523 1.064-.864 2.105-1.043 3.176-.047.241-.088.489-.121.738-.209-.017-.421-.028-.632-.033-.018-.001-.035-.002-.059-.003a7.46 7.46 0 0 0-2.28.274l-.317.089-.163.286c-.765 1.342-1.198 2.869-1.252 4.416-.07 2.01.477 3.954 1.583 5.625 1.082 1.633 2.61 2.882 4.42 3.611l.236.095.071.025.003-.001a9.59 9.59 0 0 0 2.941.568q.171.006.342.006c1.273 0 2.513-.249 3.69-.742l.008.004.313-.145a9.63 9.63 0 0 0 3.927-3.335c1.01-1.49 1.577-3.234 1.641-5.042.075-2.161-.643-4.304-2.133-6.371m-7.083 6.695c.328 1.244.264 2.44-.191 3.558-1.135-1.12-1.967-2.352-2.475-3.665-.543-1.404-.87-2.74-.974-3.975.48.157.922.366 1.315.622 1.132.737 1.914 1.902 2.325 3.461zm.207 6.022c.482.368.99.712 1.513 1.028-.771.21-1.565.302-2.369.273a8 8 0 0 1-.373-.022c.458-.394.869-.823 1.228-1.279zm1.347-6.431c-.516-1.957-1.527-3.437-3.002-4.398-.647-.421-1.385-.741-2.194-.95.011-.134.026-.268.043-.4.014-.113.03-.216.046-.313.133-.689.332-1.37.589-2.025.099-.25.206-.499.321-.74l.004-.008c.177-.358.376-.719.61-1.105l.092-.152-.003-.001c.544-.851 1.197-1.627 1.942-2.311l.288.341c.672.796 1.304 1.548 1.878 2.237 1.291 1.549 2.966 3.583 3.612 4.48 1.277 1.771 1.893 3.579 1.83 5.375-.049 1.395-.461 2.755-1.195 3.933-.694 1.116-1.661 2.05-2.8 2.708-.636-.318-1.559-.839-2.539-1.599.79-1.575.952-3.28.479-5.072zm-2.575 5.397c-.725.939-1.587 1.55-2.09 1.856-.081-.029-.163-.06-.243-.093l-.065-.026c-1.49-.616-2.747-1.656-3.635-3.01-.907-1.384-1.356-2.993-1.298-4.653.041-1.19.338-2.327.882-3.379.316-.07.638-.114.96-.131l.084-.002c.162-.003.324-.003.478 0 .227.011.454.035.677.07.073 1.513.445 3.145 1.105 4.852.637 1.644 1.694 3.162 3.144 4.515z" fill="#e6edf3"/></g><text x="431.0" y="387.5" font-size="13" fill="#e6edf3">Firebase</text><g clip-path="url(#clip33)"><rect y="368.0" width="10" height="30" fill="#ffffff" opacity="0"><animate attributeName="x" from="372.0" to="531.4" dur="0.6s" begin="0.66s" fill="freeze"/><animate attributeName="opacity" values="0;0.45;0" keyTimes="0;0.5;1" dur="0.6s" begin="0.66s" fill="freeze"/></rect></g>
<clipPath id="clip34"><rect x="517.4" y="368.0" width="88.0" height="30" rx="15.0"/></clipPath><rect x="517.4" y="368.0" width="88.0" height="30" rx="15.0" fill="#ffffff" fill-opacity="0.06" stroke="#a371f7" stroke-opacity="0.35" filter="url(#chipShadow)"/><ellipse cx="561.4" cy="383.0" rx="44.0" ry="15.0" fill="url(#glow-a371f7)" clip-path="url(#clip34)"/><rect x="517.4" y="368.0" width="88.0" height="16.5" fill="url(#glossGrad)" clip-path="url(#clip34)"/><line x1="532.4" y1="369.5" x2="590.4" y2="369.5" stroke="#ffffff" stroke-opacity="0.22" stroke-width="1" stroke-linecap="round"/><g transform="translate(531.4,376.0) scale(0.5833)"><path d="M22.71 13.145c-1.66 2.092-3.452 4.483-7.038 4.483-3.203 0-4.397-2.825-4.48-5.12.701 1.484 2.073 2.685 4.214 2.63 4.117-.133 6.94-3.852 6.94-7.239 0-4.05-3.022-6.972-8.268-6.972-3.752 0-8.4 1.428-11.455 3.685C2.59 6.937 3.885 9.958 4.35 9.626c2.648-1.904 4.748-3.13 6.784-3.744C8.12 9.244.886 17.05 0 18.425c.1 1.261 1.66 4.648 2.424 4.648.232 0 .431-.133.664-.365a100.49 100.49 0 0 0 5.54-6.765c.222 3.104 1.748 6.898 6.014 6.898 3.819 0 7.604-2.756 9.33-8.965.2-.764-.73-1.361-1.261-.73zm-4.349-5.013c0 1.959-1.926 2.922-3.685 2.922-.941 0-1.664-.247-2.235-.568 1.051-1.592 2.092-3.225 3.21-4.973 1.972.334 2.71 1.43 2.71 2.619z" fill="#e6edf3"/></g><text x="552.4" y="387.5" font-size="13" fill="#e6edf3">Redis</text><g clip-path="url(#clip34)"><rect y="368.0" width="10" height="30" fill="#ffffff" opacity="0"><animate attributeName="x" from="493.4" to="629.4" dur="0.6s" begin="0.80s" fill="freeze"/><animate attributeName="opacity" values="0;0.45;0" keyTimes="0;0.5;1" dur="0.6s" begin="0.80s" fill="freeze"/></rect></g>
<clipPath id="clip35"><rect x="615.4" y="368.0" width="95.8" height="30" rx="15.0"/></clipPath><rect x="615.4" y="368.0" width="95.8" height="30" rx="15.0" fill="#ffffff" fill-opacity="0.06" stroke="#a371f7" stroke-opacity="0.35" filter="url(#chipShadow)"/><ellipse cx="663.3" cy="383.0" rx="47.9" ry="15.0" fill="url(#glow-a371f7)" clip-path="url(#clip35)"/><rect x="615.4" y="368.0" width="95.8" height="16.5" fill="url(#glossGrad)" clip-path="url(#clip35)"/><line x1="630.4" y1="369.5" x2="696.2" y2="369.5" stroke="#ffffff" stroke-opacity="0.22" stroke-width="1" stroke-linecap="round"/><g transform="translate(629.4,376.0) scale(0.5833)"><path d="M13.976 9.15c-2.172-.806-3.356-1.426-3.356-2.409 0-.831.683-1.305 1.901-1.305 2.227 0 4.515.858 6.09 1.631l.89-5.494C18.252.975 15.697 0 12.165 0 9.667 0 7.589.654 6.104 1.872 4.56 3.147 3.757 4.992 3.757 7.218c0 4.039 2.467 5.76 6.476 7.219 2.585.92 3.445 1.574 3.445 2.583 0 .98-.84 1.545-2.354 1.545-1.875 0-4.965-.921-6.99-2.109l-.9 5.555C5.175 22.99 8.385 24 11.714 24c2.641 0 4.843-.624 6.328-1.813 1.664-1.305 2.525-3.236 2.525-5.732 0-4.128-2.524-5.851-6.594-7.305h.003z" fill="#e6edf3"/></g><text x="650.4" y="387.5" font-size="13" fill="#e6edf3">Stripe</text><g clip-path="url(#clip35)"><rect y="368.0" width="10" height="30" fill="#ffffff" opacity="0"><animate attributeName="x" from="591.4" to="735.2" dur="0.6s" begin="0.92s" fill="freeze"/><animate attributeName="opacity" values="0;0.45;0" keyTimes="0;0.5;1" dur="0.6s" begin="0.92s" fill="freeze"/></rect></g>
<text x="24" y="434.0" font-size="14" font-weight="700" fill="#f0a020">Cloud / DevOps / Tools</text>
<clipPath id="clip36"><rect x="24.0" y="446.0" width="95.8" height="30" rx="15.0"/></clipPath><rect x="24.0" y="446.0" width="95.8" height="30" rx="15.0" fill="#ffffff" fill-opacity="0.06" stroke="#f0a020" stroke-opacity="0.35" filter="url(#chipShadow)"/><ellipse cx="71.9" cy="461.0" rx="47.9" ry="15.0" fill="url(#glow-f0a020)" clip-path="url(#clip36)"/><rect x="24.0" y="446.0" width="95.8" height="16.5" fill="url(#glossGrad)" clip-path="url(#clip36)"/><line x1="39.0" y1="447.5" x2="104.8" y2="447.5" stroke="#ffffff" stroke-opacity="0.22" stroke-width="1" stroke-linecap="round"/><g transform="translate(38.0,454.0) scale(0.5833)"><path d="M13.983 11.078h2.119a.186.186 0 00.186-.185V9.006a.186.186 0 00-.186-.186h-2.119a.185.185 0 00-.185.185v1.888c0 .102.083.185.185.185m-2.954-5.43h2.118a.186.186 0 00.186-.186V3.574a.186.186 0 00-.186-.185h-2.118a.185.185 0 00-.185.185v1.888c0 .102.082.185.185.185m0 2.716h2.118a.187.187 0 00.186-.186V6.29a.186.186 0 00-.186-.185h-2.118a.185.185 0 00-.185.185v1.887c0 .102.082.185.185.186m-2.93 0h2.12a.186.186 0 00.184-.186V6.29a.185.185 0 00-.185-.185H8.1a.185.185 0 00-.185.185v1.887c0 .102.083.185.185.186m-2.964 0h2.119a.186.186 0 00.185-.186V6.29a.185.185 0 00-.185-.185H5.136a.186.186 0 00-.186.185v1.887c0 .102.084.185.186.186m5.893 2.715h2.118a.186.186 0 00.186-.185V9.006a.186.186 0 00-.186-.186h-2.118a.185.185 0 00-.185.185v1.888c0 .102.082.185.185.185m-2.93 0h2.12a.185.185 0 00.184-.185V9.006a.185.185 0 00-.184-.186h-2.12a.185.185 0 00-.184.185v1.888c0 .102.083.185.185.185m-2.964 0h2.119a.185.185 0 00.185-.185V9.006a.185.185 0 00-.184-.186h-2.12a.186.186 0 00-.186.186v1.887c0 .102.084.185.186.185m-2.92 0h2.12a.185.185 0 00.184-.185V9.006a.185.185 0 00-.184-.186h-2.12a.185.185 0 00-.184.185v1.888c0 .102.082.185.185.185M23.763 9.89c-.065-.051-.672-.51-1.954-.51-.338.001-.676.03-1.01.087-.248-1.7-1.653-2.53-1.716-2.566l-.344-.199-.226.327c-.284.438-.49.922-.612 1.43-.23.97-.09 1.882.403 2.661-.595.332-1.55.413-1.744.42H.751a.751.751 0 00-.75.748 11.376 11.376 0 00.692 4.062c.545 1.428 1.355 2.48 2.41 3.124 1.18.723 3.1 1.137 5.275 1.137.983.003 1.963-.086 2.93-.266a12.248 12.248 0 003.823-1.389c.98-.567 1.86-1.288 2.61-2.136 1.252-1.418 1.998-2.997 2.553-4.4h.221c1.372 0 2.215-.549 2.68-1.009.309-.293.55-.65.707-1.046l.098-.288Z" fill="#e6edf3"/></g><text x="59.0" y="465.5" font-size="13" fill="#e6edf3">Docker</text><g clip-path="url(#clip36)"><rect y="446.0" width="10" height="30" fill="#ffffff" opacity="0"><animate attributeName="x" from="0.0" to="143.8" dur="0.6s" begin="0.23s" fill="freeze"/><animate attributeName="opacity" values="0;0.45;0" keyTimes="0;0.5;1" dur="0.6s" begin="0.23s" fill="freeze"/></rect></g>
<clipPath id="clip37"><rect x="129.8" y="446.0" width="88.0" height="30" rx="15.0"/></clipPath><rect x="129.8" y="446.0" width="88.0" height="30" rx="15.0" fill="#ffffff" fill-opacity="0.06" stroke="#f0a020" stroke-opacity="0.35" filter="url(#chipShadow)"/><ellipse cx="173.8" cy="461.0" rx="44.0" ry="15.0" fill="url(#glow-f0a020)" clip-path="url(#clip37)"/><rect x="129.8" y="446.0" width="88.0" height="16.5" fill="url(#glossGrad)" clip-path="url(#clip37)"/><line x1="144.8" y1="447.5" x2="202.8" y2="447.5" stroke="#ffffff" stroke-opacity="0.22" stroke-width="1" stroke-linecap="round"/><g transform="translate(143.8,454.0) scale(0.5833)"><path d="M12.504 0c-.155 0-.315.008-.48.021-4.226.333-3.105 4.807-3.17 6.298-.076 1.092-.3 1.953-1.05 3.02-.885 1.051-2.127 2.75-2.716 4.521-.278.832-.41 1.684-.287 2.489a.424.424 0 00-.11.135c-.26.268-.45.6-.663.839-.199.199-.485.267-.797.4-.313.136-.658.269-.864.68-.09.189-.136.394-.132.602 0 .199.027.4.055.536.058.399.116.728.04.97-.249.68-.28 1.145-.106 1.484.174.334.535.47.94.601.81.2 1.91.135 2.774.6.926.466 1.866.67 2.616.47.526-.116.97-.464 1.208-.946.587-.003 1.23-.269 2.26-.334.699-.058 1.574.267 2.577.2.025.134.063.198.114.333l.003.003c.391.778 1.113 1.132 1.884 1.071.771-.06 1.592-.536 2.257-1.306.631-.765 1.683-1.084 2.378-1.503.348-.199.629-.469.649-.853.023-.4-.2-.811-.714-1.376v-.097l-.003-.003c-.17-.2-.25-.535-.338-.926-.085-.401-.182-.786-.492-1.046h-.003c-.059-.054-.123-.067-.188-.135a.357.357 0 00-.19-.064c.431-1.278.264-2.55-.173-3.694-.533-1.41-1.465-2.638-2.175-3.483-.796-1.005-1.576-1.957-1.56-3.368.026-2.152.236-6.133-3.544-6.139zm.529 3.405h.013c.213 0 .396.062.584.198.19.135.33.332.438.533.105.259.158.459.166.724 0-.02.006-.04.006-.06v.105a.086.086 0 01-.004-.021l-.004-.024a1.807 1.807 0 01-.15.706.953.953 0 01-.213.335.71.71 0 00-.088-.042c-.104-.045-.198-.064-.284-.133a1.312 1.312 0 00-.22-.066c.05-.06.146-.133.183-.198.053-.128.082-.264.088-.402v-.02a1.21 1.21 0 00-.061-.4c-.045-.134-.101-.2-.183-.333-.084-.066-.167-.132-.267-.132h-.016c-.093 0-.176.03-.262.132a.8.8 0 00-.205.334 1.18 1.18 0 00-.09.4v.019c.002.089.008.179.02.267-.193-.067-.438-.135-.607-.202a1.635 1.635 0 01-.018-.2v-.02a1.772 1.772 0 01.15-.768c.082-.22.232-.406.43-.533a.985.985 0 01.594-.2zm-2.962.059h.036c.142 0 .27.048.399.135.146.129.264.288.344.465.09.199.14.4.153.667v.004c.007.134.006.2-.002.266v.08c-.03.007-.056.018-.083.024-.152.055-.274.135-.393.2.012-.09.013-.18.003-.267v-.015c-.012-.133-.04-.2-.082-.333a.613.613 0 00-.166-.267.248.248 0 00-.183-.064h-.021c-.071.006-.13.04-.186.132a.552.552 0 00-.12.27.944.944 0 00-.023.33v.015c.012.135.037.2.08.334.046.134.098.2.166.268.01.009.02.018.034.024-.07.057-.117.07-.176.136a.304.304 0 01-.131.068 2.62 2.62 0 01-.275-.402 1.772 1.772 0 01-.155-.667 1.759 1.759 0 01.08-.668 1.43 1.43 0 01.283-.535c.128-.133.26-.2.418-.2zm1.37 1.706c.332 0 .733.065 1.216.399.293.2.523.269 1.052.468h.003c.255.136.405.266.478.399v-.131a.571.571 0 01.016.47c-.123.31-.516.643-1.063.842v.002c-.268.135-.501.333-.775.465-.276.135-.588.292-1.012.267a1.139 1.139 0 01-.448-.067 3.566 3.566 0 01-.322-.198c-.195-.135-.363-.332-.612-.465v-.005h-.005c-.4-.246-.616-.512-.686-.71-.07-.268-.005-.47.193-.6.224-.135.38-.271.483-.336.104-.074.143-.102.176-.131h.002v-.003c.169-.202.436-.47.839-.601.139-.036.294-.065.466-.065zm2.8 2.142c.358 1.417 1.196 3.475 1.735 4.473.286.534.855 1.659 1.102 3.024.156-.005.33.018.513.064.646-1.671-.546-3.467-1.089-3.966-.22-.2-.232-.335-.123-.335.59.534 1.365 1.572 1.646 2.757.13.535.16 1.104.021 1.67.067.028.135.06.205.067 1.032.534 1.413.938 1.23 1.537v-.043c-.06-.003-.12 0-.18 0h-.016c.151-.467-.182-.825-1.065-1.224-.915-.4-1.646-.336-1.77.465-.008.043-.013.066-.018.135-.068.023-.139.053-.209.064-.43.268-.662.669-.793 1.187-.13.533-.17 1.156-.205 1.869v.003c-.02.334-.17.838-.319 1.35-1.5 1.072-3.58 1.538-5.348.334a2.645 2.645 0 00-.402-.533 1.45 1.45 0 00-.275-.333c.182 0 .338-.03.465-.067a.615.615 0 00.314-.334c.108-.267 0-.697-.345-1.163-.345-.467-.931-.995-1.788-1.521-.63-.4-.986-.87-1.15-1.396-.165-.534-.143-1.085-.015-1.645.245-1.07.873-2.11 1.274-2.763.107-.065.037.135-.408.974-.396.751-1.14 2.497-.122 3.854a8.123 8.123 0 01.647-2.876c.564-1.278 1.743-3.504 1.836-5.268.048.036.217.135.289.202.218.133.38.333.59.465.21.201.477.335.876.335.039.003.075.006.11.006.412 0 .73-.134.997-.268.29-.134.52-.334.74-.4h.005c.467-.135.835-.402 1.044-.7zm2.185 8.958c.037.6.343 1.245.882 1.377.588.134 1.434-.333 1.791-.765l.211-.01c.315-.007.577.01.847.268l.003.003c.208.199.305.53.391.876.085.4.154.78.409 1.066.486.527.645.906.636 1.14l.003-.007v.018l-.003-.012c-.015.262-.185.396-.498.595-.63.401-1.746.712-2.457 1.57-.618.737-1.37 1.14-2.036 1.191-.664.053-1.237-.2-1.574-.898l-.005-.003c-.21-.4-.12-1.025.056-1.69.176-.668.428-1.344.463-1.897.037-.714.076-1.335.195-1.814.12-.465.308-.797.641-.984l.045-.022zm-10.814.049h.01c.053 0 .105.005.157.014.376.055.706.333 1.023.752l.91 1.664.003.003c.243.533.754 1.064 1.189 1.637.434.598.77 1.131.729 1.57v.006c-.057.744-.48 1.148-1.125 1.294-.645.135-1.52.002-2.395-.464-.968-.536-2.118-.469-2.857-.602-.369-.066-.61-.2-.723-.4-.11-.2-.113-.602.123-1.23v-.004l.002-.003c.117-.334.03-.752-.027-1.118-.055-.401-.083-.71.043-.94.16-.334.396-.4.69-.533.294-.135.64-.202.915-.47h.002v-.002c.256-.268.445-.601.668-.838.19-.201.38-.336.663-.336zm7.159-9.074c-.435.201-.945.535-1.488.535-.542 0-.97-.267-1.28-.466-.154-.134-.28-.268-.373-.335-.164-.134-.144-.333-.074-.333.109.016.129.134.199.2.096.066.215.2.36.333.292.2.68.467 1.167.467.485 0 1.053-.267 1.398-.466.195-.135.445-.334.648-.467.156-.136.149-.267.279-.267.128.016.034.134-.147.332a8.097 8.097 0 01-.69.468zm-1.082-1.583V5.64c-.006-.02.013-.042.029-.05.074-.043.18-.027.26.004.063 0 .16.067.15.135-.006.049-.085.066-.135.066-.055 0-.092-.043-.141-.068-.052-.018-.146-.008-.163-.065zm-.551 0c-.02.058-.113.049-.166.066-.047.025-.086.068-.14.068-.05 0-.13-.02-.136-.068-.01-.066.088-.133.15-.133.08-.031.184-.047.259-.005.019.009.036.03.03.05v.02h.003z" fill="#e6edf3"/></g><text x="164.8" y="465.5" font-size="13" fill="#e6edf3">Linux</text><g clip-path="url(#clip37)"><rect y="446.0" width="10" height="30" fill="#ffffff" opacity="0"><animate attributeName="x" from="105.8" to="241.8" dur="0.6s" begin="0.35s" fill="freeze"/><animate attributeName="opacity" values="0;0.45;0" keyTimes="0;0.5;1" dur="0.6s" begin="0.35s" fill="freeze"/></rect></g>
<clipPath id="clip38"><rect x="227.8" y="446.0" width="72.4" height="30" rx="15.0"/></clipPath><rect x="227.8" y="446.0" width="72.4" height="30" rx="15.0" fill="#ffffff" fill-opacity="0.06" stroke="#f0a020" stroke-opacity="0.35" filter="url(#chipShadow)"/><ellipse cx="264.0" cy="461.0" rx="36.2" ry="15.0" fill="url(#glow-f0a020)" clip-path="url(#clip38)"/><rect x="227.8" y="446.0" width="72.4" height="16.5" fill="url(#glossGrad)" clip-path="url(#clip38)"/><line x1="242.8" y1="447.5" x2="285.2" y2="447.5" stroke="#ffffff" stroke-opacity="0.22" stroke-width="1" stroke-linecap="round"/><g transform="translate(241.8,454.0) scale(0.5833)"><path d="M13.09 23.549a1.54 1.54 0 0 1-2.18 0L.451 13.089a1.54 1.54 0 0 1 0-2.179l7.191-7.19 2.733 2.733a1.85 1.85 0 0 0 .964 2.326v6.66a1.849 1.849 0 1 0 1.54 0V8.957l2.508 2.508a1.85 1.85 0 1 0 1.09-1.09l-2.634-2.634a1.85 1.85 0 0 0-2.378-2.377L8.73 2.63 10.91.451a1.54 1.54 0 0 1 2.179 0l10.459 10.46a1.54 1.54 0 0 1 0 2.179z" fill="#e6edf3"/></g><text x="262.8" y="465.5" font-size="13" fill="#e6edf3">Git</text><g clip-path="url(#clip38)"><rect y="446.0" width="10" height="30" fill="#ffffff" opacity="0"><animate attributeName="x" from="203.8" to="324.2" dur="0.6s" begin="0.46s" fill="freeze"/><animate attributeName="opacity" values="0;0.45;0" keyTimes="0;0.5;1" dur="0.6s" begin="0.46s" fill="freeze"/></rect></g>
<clipPath id="clip39"><rect x="310.2" y="446.0" width="158.2" height="30" rx="15.0"/></clipPath><rect x="310.2" y="446.0" width="158.2" height="30" rx="15.0" fill="#ffffff" fill-opacity="0.06" stroke="#f0a020" stroke-opacity="0.35" filter="url(#chipShadow)"/><ellipse cx="389.3" cy="461.0" rx="79.1" ry="15.0" fill="url(#glow-f0a020)" clip-path="url(#clip39)"/><rect x="310.2" y="446.0" width="158.2" height="16.5" fill="url(#glossGrad)" clip-path="url(#clip39)"/><line x1="325.2" y1="447.5" x2="453.4" y2="447.5" stroke="#ffffff" stroke-opacity="0.22" stroke-width="1" stroke-linecap="round"/><g transform="translate(324.2,454.0) scale(0.5833)"><path d="M10.984 13.836a.5.5 0 0 1-.353-.146l-.745-.743a.5.5 0 1 1 .706-.708l.392.391 1.181-1.18a.5.5 0 0 1 .708.707l-1.535 1.533a.504.504 0 0 1-.354.146zm9.353-.147l1.534-1.532a.5.5 0 0 0-.707-.707l-1.181 1.18-.392-.391a.5.5 0 1 0-.706.708l.746.743a.497.497 0 0 0 .706-.001zM4.527 7.452l2.557-1.585A1 1 0 0 0 7.09 4.17L4.533 2.56A1 1 0 0 0 3 3.406v3.196a1.001 1.001 0 0 0 1.527.85zm2.03-2.436L4 6.602V3.406l2.557 1.61zM24 12.5c0 1.93-1.57 3.5-3.5 3.5a3.503 3.503 0 0 1-3.46-3h-2.08a3.503 3.503 0 0 1-3.46 3 3.502 3.502 0 0 1-3.46-3h-.558c-.972 0-1.85-.399-2.482-1.042V17c0 1.654 1.346 3 3 3h.04c.244-1.693 1.7-3 3.46-3 1.93 0 3.5 1.57 3.5 3.5S13.43 24 11.5 24a3.502 3.502 0 0 1-3.46-3H8c-2.206 0-4-1.794-4-4V9.899A5.008 5.008 0 0 1 0 5c0-2.757 2.243-5 5-5s5 2.243 5 5a5.005 5.005 0 0 1-4.952 4.998A2.482 2.482 0 0 0 7.482 12h.558c.244-1.693 1.7-3 3.46-3a3.502 3.502 0 0 1 3.46 3h2.08a3.503 3.503 0 0 1 3.46-3c1.93 0 3.5 1.57 3.5 3.5zm-15 8c0 1.378 1.122 2.5 2.5 2.5s2.5-1.122 2.5-2.5-1.122-2.5-2.5-2.5S9 19.122 9 20.5zM5 9c2.206 0 4-1.794 4-4S7.206 1 5 1 1 2.794 1 5s1.794 4 4 4zm9 3.5c0-1.378-1.122-2.5-2.5-2.5S9 11.122 9 12.5s1.122 2.5 2.5 2.5 2.5-1.122 2.5-2.5zm9 0c0-1.378-1.122-2.5-2.5-2.5S18 11.122 18 12.5s1.122 2.5 2.5 2.5 2.5-1.122 2.5-2.5zm-13 8a.5.5 0 1 0 1 0 .5.5 0 0 0-1 0zm2 0a.5.5 0 1 0 1 0 .5.5 0 0 0-1 0zm12 0c0 1.93-1.57 3.5-3.5 3.5a3.503 3.503 0 0 1-3.46-3.002c-.007.001-.013.005-.021.005l-.506.017h-.017a.5.5 0 0 1-.016-.999l.506-.017c.018-.002.035.006.052.007A3.503 3.503 0 0 1 20.5 17c1.93 0 3.5 1.57 3.5 3.5zm-1 0c0-1.378-1.122-2.5-2.5-2.5S18 19.122 18 20.5s1.122 2.5 2.5 2.5 2.5-1.122 2.5-2.5z" fill="#e6edf3"/></g><text x="345.2" y="465.5" font-size="13" fill="#e6edf3">GitHub Actions</text><g clip-path="url(#clip39)"><rect y="446.0" width="10" height="30" fill="#ffffff" opacity="0"><animate attributeName="x" from="286.2" to="492.4" dur="0.6s" begin="0.56s" fill="freeze"/><animate attributeName="opacity" values="0;0.45;0" keyTimes="0;0.5;1" dur="0.6s" begin="0.56s" fill="freeze"/></rect></g>
<clipPath id="clip40"><rect x="478.4" y="446.0" width="88.0" height="30" rx="15.0"/></clipPath><rect x="478.4" y="446.0" width="88.0" height="30" rx="15.0" fill="#ffffff" fill-opacity="0.06" stroke="#f0a020" stroke-opacity="0.35" filter="url(#chipShadow)"/><ellipse cx="522.4" cy="461.0" rx="44.0" ry="15.0" fill="url(#glow-f0a020)" clip-path="url(#clip40)"/><rect x="478.4" y="446.0" width="88.0" height="16.5" fill="url(#glossGrad)" clip-path="url(#clip40)"/><line x1="493.4" y1="447.5" x2="551.4" y2="447.5" stroke="#ffffff" stroke-opacity="0.22" stroke-width="1" stroke-linecap="round"/><g transform="translate(492.4,454.0) scale(0.5833)"><path d="M22.379 23.343a1.62 1.62 0 0 0 1.536-2.14v.002L17.35 1.76A1.62 1.62 0 0 0 15.816.657H8.184A1.62 1.62 0 0 0 6.65 1.76L.086 21.204a1.62 1.62 0 0 0 1.536 2.139h4.741a1.62 1.62 0 0 0 1.535-1.103l.977-2.892 4.947 3.675c.28.208.618.32.966.32m-3.084-12.531 3.624 10.739a.54.54 0 0 1-.51.713v-.001h-.03a.54.54 0 0 1-.322-.106l-9.287-6.9h4.853m6.313 7.006c.116-.326.13-.694.007-1.058L9.79 1.76a1.722 1.722 0 0 0-.007-.02h6.034a.54.54 0 0 1 .512.366l6.562 19.445a.54.54 0 0 1-.338.684" fill="#e6edf3"/></g><text x="513.4" y="465.5" font-size="13" fill="#e6edf3">Azure</text><g clip-path="url(#clip40)"><rect y="446.0" width="10" height="30" fill="#ffffff" opacity="0"><animate attributeName="x" from="454.4" to="590.4" dur="0.6s" begin="0.76s" fill="freeze"/><animate attributeName="opacity" values="0;0.45;0" keyTimes="0;0.5;1" dur="0.6s" begin="0.76s" fill="freeze"/></rect></g>
<clipPath id="clip41"><rect x="576.4" y="446.0" width="95.8" height="30" rx="15.0"/></clipPath><rect x="576.4" y="446.0" width="95.8" height="30" rx="15.0" fill="#ffffff" fill-opacity="0.06" stroke="#f0a020" stroke-opacity="0.35" filter="url(#chipShadow)"/><ellipse cx="624.3" cy="461.0" rx="47.9" ry="15.0" fill="url(#glow-f0a020)" clip-path="url(#clip41)"/><rect x="576.4" y="446.0" width="95.8" height="16.5" fill="url(#glossGrad)" clip-path="url(#clip41)"/><line x1="591.4" y1="447.5" x2="657.2" y2="447.5" stroke="#ffffff" stroke-opacity="0.22" stroke-width="1" stroke-linecap="round"/><g transform="translate(590.4,454.0) scale(0.5833)"><path d="m12 1.608 12 20.784H0Z" fill="#e6edf3"/></g><text x="611.4" y="465.5" font-size="13" fill="#e6edf3">Vercel</text><g clip-path="url(#clip41)"><rect y="446.0" width="10" height="30" fill="#ffffff" opacity="0"><animate attributeName="x" from="552.4" to="696.2" dur="0.6s" begin="0.87s" fill="freeze"/><animate attributeName="opacity" values="0;0.45;0" keyTimes="0;0.5;1" dur="0.6s" begin="0.87s" fill="freeze"/></rect></g>
<clipPath id="clip42"><rect x="682.2" y="446.0" width="103.6" height="30" rx="15.0"/></clipPath><rect x="682.2" y="446.0" width="103.6" height="30" rx="15.0" fill="#ffffff" fill-opacity="0.06" stroke="#f0a020" stroke-opacity="0.35" filter="url(#chipShadow)"/><ellipse cx="734.0" cy="461.0" rx="51.8" ry="15.0" fill="url(#glow-f0a020)" clip-path="url(#clip42)"/><rect x="682.2" y="446.0" width="103.6" height="16.5" fill="url(#glossGrad)" clip-path="url(#clip42)"/><line x1="697.2" y1="447.5" x2="770.8" y2="447.5" stroke="#ffffff" stroke-opacity="0.22" stroke-width="1" stroke-linecap="round"/><g transform="translate(696.2,454.0) scale(0.5833)"><path d="M13.527.099C6.955-.744.942 3.9.099 10.473c-.843 6.572 3.8 12.584 10.373 13.428 6.573.843 12.587-3.801 13.428-10.374C24.744 6.955 20.101.943 13.527.099zm2.471 7.485a.855.855 0 0 0-.593.25l-4.453 4.453-.307-.307-.643-.643c4.389-4.376 5.18-4.418 5.996-3.753zm-4.863 4.861l4.44-4.44a.62.62 0 1 1 .847.903l-4.699 4.125-.588-.588zm.33.694l-1.1.238a.06.06 0 0 1-.067-.032.06.06 0 0 1 .01-.073l.645-.645.512.512zm-2.803-.459l1.172-1.172.879.878-1.979.426a.074.074 0 0 1-.085-.039.072.072 0 0 1 .013-.093zm-3.646 6.058a.076.076 0 0 1-.069-.083.077.077 0 0 1 .022-.046h.002l.946-.946 1.222 1.222-2.123-.147zm2.425-1.256a.228.228 0 0 0-.117.256l.203.865a.125.125 0 0 1-.211.117h-.003l-.934-.934-.294-.295 3.762-3.758 1.82-.393.874.874c-1.255 1.102-2.971 2.201-5.1 3.268zm5.279-3.428h-.002l-.839-.839 4.699-4.125a.952.952 0 0 0 .119-.127c-.148 1.345-2.029 3.245-3.977 5.091zm3.657-6.46l-.003-.002a1.822 1.822 0 0 1 2.459-2.684l-1.61 1.613a.119.119 0 0 0 0 .169l1.247 1.247a1.817 1.817 0 0 1-2.093-.343zm2.578 0a1.714 1.714 0 0 1-.271.218h-.001l-1.207-1.207 1.533-1.533c.661.72.637 1.832-.054 2.522zM18.855 6.05a.143.143 0 0 0-.053.157.416.416 0 0 1-.053.45.14.14 0 0 0 .023.197.141.141 0 0 0 .084.03.14.14 0 0 0 .106-.05.691.691 0 0 0 .087-.751.138.138 0 0 0-.194-.033z" fill="#e6edf3"/></g><text x="717.2" y="465.5" font-size="13" fill="#e6edf3">Postman</text><g clip-path="url(#clip42)"><rect y="446.0" width="10" height="30" fill="#ffffff" opacity="0"><animate attributeName="x" from="658.2" to="809.8" dur="0.6s" begin="0.99s" fill="freeze"/><animate attributeName="opacity" values="0;0.45;0" keyTimes="0;0.5;1" dur="0.6s" begin="0.99s" fill="freeze"/></rect></g>
</svg>